<svg version="1.1" viewBox="0.0 0.0 944.8818897637796 944.8818897637796" fill="none" stroke="none" stroke-linecap="square" stroke-miterlimit="10" xmlns:xlink="http://www.w3.org/1999/xlink" xmlns="http://www.w3.org/2000/svg"><clipPath id="p.0"><path d="m0 0l944.8819 0l0 944.8819l-944.8819 0l0 -944.8819z" clip-rule="nonzero"/></clipPath><g clip-path="url(#p.0)"><path fill="#000000" fill-opacity="0.0" d="m0 0l944.8819 0l0 944.8819l-944.8819 0z" fill-rule="evenodd"/><path fill="#1b1b32" d="m-1.3149606 184.72177l0 0c0 -48.628586 39.421265 -88.04986 88.049866 -88.04986l768.78217 0c23.352234 0 45.748108 9.276657 62.26062 25.789207c16.512573 16.512558 25.789246 38.908386 25.789246 62.26065l0 560.71924c0 48.62854 -39.421265 88.049805 -88.049866 88.049805l-768.78217 0c-48.628597 0 -88.049866 -39.421265 -88.049866 -88.049805z" fill-rule="evenodd"/><path fill="#000000" fill-opacity="0.0" d="m-40.40945 530.60895l1025.7008 0l0 283.5905l-1025.7008 0z" fill-rule="evenodd"/><path fill="#f1be32" d="m37.591343 732.1402q-2.125 0 -3.1875 -0.609375q-1.0625 -0.625 -1.0625 -1.875q0 -1.59375 1.5 -2.03125q1.515625 -0.453125 3.46875 -1.15625q4.078125 -1.421875 7.171875 -4.96875q3.109375 -3.546875 3.8125 -9.046875q1.0625 -8.15625 2.21875 -20.125q1.15625 -11.96875 2.390625 -25.625q1.25 -13.65625 2.140625 -26.953125q0.171875 -1.0625 0.171875 -2.65625q0 -1.59375 0 -3.375q0 -3.1875 -0.984375 -5.046875q-0.96875 -1.859375 -3.265625 -3.109375q-2.140625 -1.40625 -4.625 -2.375q-2.46875 -0.984375 -5.3125 -1.703125q-2.125 -0.53125 -3.375 -1.40625q-1.234375 -0.890625 -1.234375 -2.3125q0 -1.59375 1.421875 -2.125q1.421875 -0.53125 3.359375 -0.53125q2.671875 0 6.5625 0.171875q3.90625 0.171875 8.609375 0.265625q4.703125 0.09375 9.578129 0.265625q4.875 0.171875 8.953125 0.171875q1.421875 0 2.65625 0.984375q1.234375 0.96875 1.59375 2.21875q1.25 3.359375 2.3125 6.46875q1.0625 3.109375 2.296875 6.46875l26.0625 62.25q0.359375 0.703125 0.984375 0.796875q0.625 0.078125 0.96875 -0.796875l25.359367 -58.875q1.25 -6.203125 2.046875 -10.109375q0.796875 -3.90625 1.5 -6.203125q0.71875 -2.3125 2.84375 -2.3125l7.625 0q7.4375 -0.359375 15.5 -1.15625q8.078125 -0.796875 12.6875 -0.796875q1.78125 0 3.109375 0.625q1.328125 0.625 1.328125 2.046875q0 1.59375 -1.15625 2.3125q-1.15625 0.703125 -2.921875 1.234375q-1.0625 0.34375 -2.484375 0.96875q-1.421875 0.625 -2.484375 1.15625q-4.609375 2.125 -6.828125 4.875q-2.21875 2.75 -1.859375 8.78125q0.359375 12.765625 0.890625 22.34375q0.53125 9.5625 0.96875 17.734375q0.453125 8.15625 1.0625 16.9375q0.625 8.765625 1.34375 20.46875q0.34375 4.609375 3.796875 7.359375q3.46875 2.75 9.140625 4.171875q1.765625 0.53125 3.0 1.25q1.25 0.703125 1.25 2.296875q0 1.234375 -1.0625 1.953125q-1.0625 0.703125 -2.65625 0.703125q-3.90625 0 -8.96875 -0.265625q-5.046875 -0.265625 -9.921875 -0.4375q-4.875 -0.1875 -8.421875 -0.1875q-3.546875 0 -7.890625 0.1875q-4.34375 0.171875 -8.78125 0.4375q-4.421875 0.265625 -8.5 0.265625q-1.59375 0 -2.84375 -0.609375q-1.234375 -0.625 -1.234375 -1.875q0 -1.59375 1.234375 -2.46875q1.25 -0.890625 3.015625 -1.25q6.5625 -1.25 9.046875 -3.640625q2.484375 -2.390625 2.296875 -7.890625q-0.53125 -10.984375 -0.890625 -21.890625q-0.34375 -10.90625 -0.609375 -21.453125q-0.265625 -10.5625 -0.796875 -20.484375q0 -1.25 -0.625 -1.15625q-0.625 0.078125 -1.15625 1.328125l-33.859367 80.5q-0.890625 2.484375 -2.671875 2.125q-1.765625 -0.34375 -2.46875 -1.765625q-8.703125 -20.5625 -18.1875 -40.59375q-9.484375 -20.046875 -17.46875 -39.734375q-0.53125 -1.59375 -1.6875038 -1.140625q-1.140625 0.4375 -1.3125 2.375q-0.546875 8.875 -0.90625 19.421875q-0.34375 10.546875 -0.34375 21.28125q0 10.734375 0 19.953125q0 4.953125 3.1875038 8.0625q3.203125 3.109375 10.109375 4.703125q1.78125 0.359375 3.375 1.15625q1.59375 0.796875 1.59375 2.390625q0 1.234375 -1.421875 1.953125q-1.421875 0.703125 -3.015625 0.703125q-4.78125 0 -7.453125 -0.265625q-2.65625 -0.265625 -4.781254 -0.34375q-2.125 -0.09375 -5.84375 -0.09375q-3.90625 0 -7.984375 0.171875q-4.078125 0.171875 -7.09375 0.34375q-3.015625 0.1875 -3.90625 0.1875zm184.07861 1.953125q-5.859375 0 -11.35936 -1.421875q-5.5 -1.421875 -9.921875 -4.609375q-1.59375 -2.65625 -2.3125 -8.328125q-0.703125 -5.6875 -0.53125 -11.890625q0 -2.125 3.546875 -2.125q1.421875 0 2.484375 0.890625q1.0625 0.890625 1.234375 1.765625q3.375 7.453125 7.8125 12.6875q4.4374847 5.234375 10.64061 5.234375q4.78125 0 7.265625 -2.921875q2.484375 -2.9375 2.484375 -6.65625q0 -4.609375 -3.640625 -7.71875q-3.625 -3.109375 -8.78125 -5.765625q-5.1406097 -2.65625 -9.749985 -6.015625q-4.609375 -3.375 -7.53125 -8.078125q-2.921875 -4.703125 -2.921875 -11.265625q0 -6.90625 3.8125 -12.046875q3.8125 -5.15625 10.28125 -8.078125q6.4687347 -2.921875 14.45311 -2.921875q5.84375 0 10.8125 1.328125q4.96875 1.328125 6.734375 2.578125q1.421875 1.765625 2.3125 6.640625q0.890625 4.875 0.890625 10.734375q0 1.953125 -3.203125 1.953125q-1.234375 0 -2.5625 -0.890625q-1.328125 -0.890625 -1.6875 -1.78125q-2.296875 -6.90625 -5.9375 -10.359375q-3.640625 -3.46875 -8.078125 -3.46875q-3.890625 0 -7.09375 2.484375q-3.1875 2.484375 -3.1875 6.734375q0 3.734375 3.453125 6.65625q3.46875 2.921875 8.609375 5.765625q11.53125 6.03125 16.484375 11.625q4.96875 5.578125 4.96875 14.796875q0 11.515625 -7.53125 18.0q-7.53125 6.46875 -22.25 6.46875zm41.838135 -1.953125q-1.234375 0 -2.390625 -0.609375q-1.15625 -0.625 -1.15625 -1.875q0 -1.421875 1.234375 -2.21875q1.25 -0.796875 2.84375 -1.328125q2.671875 -0.890625 4.703125 -2.03125q2.046875 -1.15625 2.046875 -4.703125l0 -40.609375q0 -3.90625 -1.078125 -6.640625q-1.0625 -2.75 -4.421875 -3.296875q-0.71875 -0.171875 -1.34375 -0.875q-0.609375 -0.71875 -0.609375 -2.3125q0 -2.484375 1.765625 -3.015625q4.4375 -1.0625 9.3125 -2.5625q4.875 -1.515625 9.390625 -3.1875q4.53125 -1.6875 7.90625 -3.640625q0.53125 -0.1875 1.0625 -0.53125q0.53125 -0.359375 1.0625 -0.359375q1.59375 0 1.59375 1.953125q0 1.421875 -0.453125 4.796875q-0.4375 3.359375 -0.4375 5.84375q0 1.765625 0.359375 2.125l0.359375 0q5.5 -5.328125 11.875 -8.6875q6.390625 -3.375 14.546875 -3.375q5.5 0 10.109375 3.8125q4.609375 3.8125 6.90625 9.84375l0.71875 0q5.3125 -6.375 11.953125 -10.015625q6.65625 -3.640625 15.0 -3.640625q5.5 0 9.921875 3.109375q4.4375 3.09375 7.09375 8.78125q2.65625 5.671875 2.65625 13.46875l0 39.015625q0 3.546875 2.03125 4.703125q2.046875 1.140625 4.71875 2.03125q1.421875 0.53125 2.484375 1.328125q1.0625 0.796875 1.0625 2.21875q0 1.25 -0.890625 1.875q-0.890625 0.609375 -2.125 0.609375q-3.546875 0 -6.65625 -0.265625q-3.09375 -0.265625 -6.03125 -0.4375q-2.921875 -0.1875 -6.109375 -0.1875q-3.015625 0 -5.6875 0.1875q-2.65625 0.171875 -5.3125 0.4375q-2.65625 0.265625 -6.203125 0.265625q-1.25 0 -2.140625 -0.609375q-0.875 -0.625 -0.875 -1.875q0 -1.421875 0.96875 -2.296875q0.984375 -0.890625 2.578125 -1.25q2.3125 -0.703125 3.546875 -1.859375q1.234375 -1.15625 1.234375 -3.8125l0 -36.359375q0 -4.421875 -1.234375 -7.609375q-1.234375 -3.203125 -3.453125 -5.0625q-2.21875 -1.859375 -5.0625 -1.859375q-2.296875 0 -5.046875 0.984375q-2.75 0.96875 -5.40625 3.265625q-2.484375 2.125 -2.484375 7.453125l0 38.125q0 3.546875 1.40625 4.703125q1.421875 1.140625 4.09375 2.03125q1.40625 0.359375 2.46875 1.25q1.078125 0.875 1.078125 2.296875q0 1.25 -0.984375 1.875q-0.96875 0.609375 -2.03125 0.609375q-3.546875 0 -6.390625 -0.265625q-2.84375 -0.265625 -5.421875 -0.4375q-2.5625 -0.1875 -5.75 -0.1875q-3.015625 0 -5.59375 0.1875q-2.5625 0.171875 -5.3125 0.4375q-2.75 0.265625 -6.296875 0.265625q-1.0625 0 -1.953125 -0.609375q-0.875 -0.625 -0.875 -1.875q0 -1.421875 0.96875 -2.21875q0.96875 -0.796875 2.390625 -1.328125q2.484375 -0.890625 3.71875 -1.953125q1.25 -1.0625 1.25 -3.71875l0 -36.359375q0 -4.421875 -1.25 -7.515625q-1.234375 -3.109375 -3.359375 -4.96875q-2.125 -1.875 -5.140625 -1.875q-2.125 0 -4.875 0.890625q-2.75 0.890625 -5.765625 3.015625q-2.3125 1.59375 -2.3125 6.90625l0 38.84375q0 3.1875 1.15625 4.515625q1.15625 1.328125 3.8125 2.21875q1.421875 0.53125 2.390625 1.328125q0.984375 0.796875 0.984375 2.21875q0 1.0625 -0.890625 1.78125q-0.890625 0.703125 -1.953125 0.703125q-3.546875 0 -6.296875 -0.265625q-2.75 -0.265625 -5.328125 -0.4375q-2.5625 -0.1875 -5.75 -0.1875q-3.015625 0 -5.9375 0.1875q-2.921875 0.171875 -6.03125 0.4375q-3.109375 0.265625 -6.65625 0.265625z" fill-rule="nonzero"/><path fill="#f1be32" d="m448.57614 698.8121q-2.0 0.203125 -2.0 -2.0q0 -6.0 1.09375 -9.09375q1.109375 -3.109375 3.296875 -3.515625q10.8125 -1.59375 22.703125 -3.1875q11.90625 -1.609375 22.703125 -2.40625q1.796875 -0.203125 2.390625 0.703125q0.609375 0.890625 0.609375 2.296875q0 6.0 -0.796875 8.40625q-0.796875 2.390625 -3.203125 2.796875q-10.59375 1.59375 -23.203125 3.296875q-12.59375 1.703125 -23.59375 2.703125z" fill-rule="nonzero"/><path fill="#f1be32" d="m553.3342 732.1402q-1.421875 0 -2.484375 -0.609375q-1.0625 -0.625 -1.0625 -1.875q0 -2.828125 3.734375 -3.71875q6.734375 -1.421875 9.21875 -3.640625q2.484375 -2.21875 2.484375 -8.0625l0 -79.453125q0 -6.015625 -2.140625 -8.765625q-2.125 -2.75 -8.5 -4.171875q-2.3125 -0.53125 -3.203125 -1.5q-0.875 -0.984375 -0.875 -2.21875q0 -1.0625 1.0625 -1.859375q1.0625 -0.8125 2.828125 -0.8125q4.265625 0 8.875 0.1875q4.609375 0.171875 9.03125 0.4375q4.4375 0.265625 8.515625 0.265625q6.921875 0 15.15625 0q8.25 0 15.875 0q7.28125 0 13.21875 -0.96875q5.9375 -0.984375 9.65625 -0.984375q1.421875 0 2.84375 0.71875q1.421875 0.703125 1.59375 2.65625q0.359375 4.078125 0.53125 8.515625q0.1875 4.421875 0.265625 8.5q0.09375 4.078125 0.09375 6.921875q0 3.546875 -2.125 3.546875q-0.890625 0 -2.046875 -0.703125q-1.15625 -0.71875 -1.5 -2.140625q-1.25 -4.421875 -2.671875 -7.875q-1.40625 -3.46875 -3.71875 -5.765625q-2.296875 -2.484375 -5.40625 -3.546875q-3.109375 -1.0625 -7.359375 -1.0625l-13.296875 0q-4.4375 0 -6.921875 2.21875q-2.484375 2.203125 -2.484375 5.9375q0 3.1875 0 7.453125q0 4.25 0 7.609375q0 3.90625 0 8.515625q0 4.609375 0 8.515625q0 2.296875 1.0625 3.28125q1.078125 0.96875 3.015625 0.96875q4.4375 0 8.875 0q4.4375 0 8.328125 0q4.609375 0 6.734375 -2.75q2.140625 -2.75 3.734375 -6.46875q0.703125 -1.421875 1.671875 -2.296875q0.984375 -0.890625 1.875 -0.890625q0.890625 0 1.6875 1.0625q0.796875 1.0625 0.609375 2.828125q-0.34375 3.734375 -0.609375 7.015625q-0.265625 3.28125 -0.265625 5.75q0 3.375 0.171875 5.78125q0.171875 2.390625 0.53125 6.46875q0.171875 2.296875 -0.359375 3.453125q-0.53125 1.15625 -1.40625 1.15625q-1.421875 0 -2.578125 -1.328125q-1.15625 -1.34375 -1.6875 -2.9375q-1.421875 -5.3125 -3.546875 -7.171875q-2.125 -1.875 -5.3125 -1.875q-1.953125 0 -4.171875 0q-2.21875 0 -4.171875 0q-2.484375 0 -5.234375 0q-2.734375 0 -5.21875 0.1875q-1.953125 0 -2.9375 1.0625q-0.96875 1.0625 -0.96875 3.015625q0 7.984375 0.078125 16.671875q0.09375 8.6875 0.28125 16.65625q0 5.6875 3.015625 8.0q3.015625 2.296875 10.453125 3.890625q1.78125 0.359375 2.75 1.15625q0.984375 0.796875 0.984375 2.390625q0 1.234375 -0.8125 1.953125q-0.796875 0.703125 -2.390625 0.703125q-3.890625 0 -9.046875 -0.265625q-5.140625 -0.265625 -10.109375 -0.4375q-4.953125 -0.1875 -8.5 -0.1875q-3.546875 0 -7.984375 0.1875q-4.4375 0.171875 -9.046875 0.4375q-4.609375 0.265625 -8.6875 0.265625zm109.060425 1.953125q-4.78125 0 -8.859375 -2.3125q-4.078125 -2.296875 -6.484375 -6.015625q-2.390625 -3.734375 -2.390625 -8.171875q0 -6.015625 3.8125 -10.09375q3.8125 -4.078125 11.265625 -7.28125l15.78125 -6.90625q3.546875 -1.609375 4.34375 -2.84375q0.796875 -1.234375 0.796875 -4.609375l0.171875 -10.109375q0.1875 -4.96875 -1.765625 -7.890625q-1.953125 -2.921875 -5.859375 -2.921875q-2.296875 0 -4.609375 0.984375q-2.296875 0.96875 -3.546875 2.203125q-0.53125 0.703125 -0.796875 1.6875q-0.265625 0.96875 -0.265625 2.03125q0 1.0625 0.171875 2.578125q0.1875 1.5 0.1875 2.578125q0 1.0625 -2.84375 2.75q-2.828125 1.671875 -6.5625 3.0q-3.71875 1.328125 -6.375 1.328125q-1.25 0 -2.21875 -1.0625q-0.96875 -1.0625 -0.96875 -2.65625q0 -2.828125 1.9375 -5.578125q1.953125 -2.75 6.390625 -6.296875q4.609375 -3.90625 10.109375 -6.921875q5.5 -3.015625 10.90625 -4.78125q5.40625 -1.78125 9.125 -1.78125q9.578125 0 15.25 6.125q5.671875 6.109375 5.328125 16.21875l-0.890625 35.828125q-0.171875 4.078125 1.421875 6.921875q1.59375 2.828125 3.890625 2.828125q3.375 0 5.859375 -2.3125q0.53125 -0.53125 1.0625 -0.53125q0.890625 0 1.5 0.53125q0.625 0.53125 0.625 1.421875q0 2.125 -3.1875 5.5q-3.375 3.1875 -7.09375 4.875q-3.71875 1.6875 -7.796875 1.6875q-9.9375 0 -16.5 -10.109375l-0.34375 0q-5.859375 5.3125 -10.5625 7.703125q-4.703125 2.40625 -10.015625 2.40625zm10.640625 -11.53125q1.953125 0 3.1875 -0.609375q1.25 -0.625 2.484375 -2.046875q0.53125 -0.703125 0.890625 -1.859375q0.359375 -1.15625 0.359375 -2.75l0.53125 -12.765625q0 -1.78125 -0.53125 -2.3125q-0.53125 -0.53125 -1.25 -0.53125q-0.359375 0 -0.890625 0.1875q-0.53125 0.171875 -1.234375 0.53125q-5.140625 2.46875 -7.625 5.046875q-2.484375 2.578125 -2.484375 8.25q0 5.140625 2.125 7.0q2.125 1.859375 4.4375 1.859375zm51.607178 9.578125q-1.421875 0 -2.484375 -0.609375q-1.0625 -0.625 -1.0625 -1.875q0 -1.421875 1.0625 -2.21875q1.0625 -0.796875 3.015625 -1.328125q3.890625 -1.234375 5.21875 -2.65625q1.34375 -1.421875 1.34375 -4.078125l0 -40.78125q0 -3.734375 -0.984375 -6.125q-0.96875 -2.390625 -4.34375 -3.28125q-0.890625 -0.359375 -1.59375 -0.96875q-0.703125 -0.625 -0.703125 -2.21875q0 -2.484375 2.125 -3.015625q5.671875 -1.421875 12.5 -3.71875q6.828125 -2.3125 11.609375 -4.609375q0.890625 -0.71875 2.21875 -1.328125q1.328125 -0.625 1.859375 -0.625q1.59375 0 1.59375 1.953125q0 0.875 -0.09375 3.625q-0.078125 2.75 -0.171875 5.59375q-0.078125 2.828125 -0.265625 4.78125q0 1.59375 0.71875 1.59375q2.65625 -3.71875 6.28125 -7.265625q3.640625 -3.546875 7.890625 -5.84375q4.265625 -2.3125 8.34375 -2.3125q6.203125 0 8.765625 2.3125q2.578125 2.296875 2.578125 6.015625q0 2.671875 -1.5 5.859375q-1.5 3.1875 -3.8125 5.5q-2.3125 2.296875 -4.96875 2.296875q-1.59375 0 -3.375 -0.796875q-1.765625 -0.796875 -3.53125 -1.6875q-1.78125 -0.703125 -3.46875 -1.5q-1.6875 -0.796875 -3.09375 -0.796875q-4.609375 0 -7.984375 3.375q-3.375 3.359375 -3.375 13.46875l0 28.90625q0 3.546875 2.21875 5.234375q2.21875 1.671875 7.1875 3.09375q1.953125 0.53125 2.921875 1.328125q0.984375 0.796875 0.984375 2.21875q0 2.484375 -3.015625 2.484375q-5.328125 0 -11.0 -0.453125q-5.671875 -0.4375 -10.28125 -0.4375q-3.015625 0 -6.125 0.1875q-3.09375 0.171875 -6.375 0.4375q-3.28125 0.265625 -6.828125 0.265625zm88.83569 1.953125q-4.78125 0 -8.859375 -2.3125q-4.078125 -2.296875 -6.484375 -6.015625q-2.390625 -3.734375 -2.390625 -8.171875q0 -6.015625 3.8125 -10.09375q3.8125 -4.078125 11.265625 -7.28125l15.78125 -6.90625q3.546875 -1.609375 4.34375 -2.84375q0.796875 -1.234375 0.796875 -4.609375l0.171875 -10.109375q0.1875 -4.96875 -1.765625 -7.890625q-1.953125 -2.921875 -5.859375 -2.921875q-2.296875 0 -4.609375 0.984375q-2.296875 0.96875 -3.546875 2.203125q-0.53125 0.703125 -0.796875 1.6875q-0.265625 0.96875 -0.265625 2.03125q0 1.0625 0.171875 2.578125q0.1875 1.5 0.1875 2.578125q0 1.0625 -2.84375 2.75q-2.828125 1.671875 -6.5625 3.0q-3.71875 1.328125 -6.375 1.328125q-1.25 0 -2.21875 -1.0625q-0.96875 -1.0625 -0.96875 -2.65625q0 -2.828125 1.9375 -5.578125q1.953125 -2.75 6.390625 -6.296875q4.609375 -3.90625 10.109375 -6.921875q5.5 -3.015625 10.90625 -4.78125q5.40625 -1.78125 9.125 -1.78125q9.578125 0 15.25 6.125q5.671875 6.109375 5.328125 16.21875l-0.890625 35.828125q-0.171875 4.078125 1.421875 6.921875q1.59375 2.828125 3.890625 2.828125q3.375 0 5.859375 -2.3125q0.53125 -0.53125 1.0625 -0.53125q0.890625 0 1.5 0.53125q0.625 0.53125 0.625 1.421875q0 2.125 -3.1875 5.5q-3.375 3.1875 -7.09375 4.875q-3.71875 1.6875 -7.796875 1.6875q-9.9375 0 -16.5 -10.109375l-0.34375 0q-5.859375 5.3125 -10.5625 7.703125q-4.703125 2.40625 -10.015625 2.40625zm10.640625 -11.53125q1.953125 0 3.1875 -0.609375q1.25 -0.625 2.484375 -2.046875q0.53125 -0.703125 0.890625 -1.859375q0.359375 -1.15625 0.359375 -2.75l0.53125 -12.765625q0 -1.78125 -0.53125 -2.3125q-0.53125 -0.53125 -1.25 -0.53125q-0.359375 0 -0.890625 0.1875q-0.53125 0.171875 -1.234375 0.53125q-5.140625 2.46875 -7.625 5.046875q-2.484375 2.578125 -2.484375 8.25q0 5.140625 2.125 7.0q2.125 1.859375 4.4375 1.859375zm44.502563 59.9375q-3.359375 0 -5.21875 -0.71875q-1.875 -0.703125 -1.875 -2.109375q0 -1.25 0.890625 -2.140625q0.890625 -0.875 2.484375 -1.59375q2.84375 -1.234375 5.3125 -3.28125q2.484375 -2.03125 4.796875 -6.640625q1.765625 -3.90625 2.828125 -9.5q1.078125 -5.578125 1.6875 -11.875q0.625 -6.296875 0.796875 -12.15625q0.1875 -5.84375 0.1875 -10.09375l0 -40.96875q0 -6.03125 -1.875 -8.5q-1.859375 -2.484375 -5.9375 -3.203125q-0.875 -0.171875 -1.40625 -1.0625q-0.53125 -0.890625 -0.53125 -2.125q0 -2.65625 1.9375 -3.015625q9.046875 -1.78125 16.3125 -4.96875q7.28125 -3.1875 11.0 -4.96875q1.421875 -0.703125 2.390625 -1.046875q0.984375 -0.359375 1.328125 -0.359375q2.140625 0 2.140625 2.125q-0.359375 5.140625 -1.25 12.6875q-0.890625 7.53125 -0.890625 13.90625l0.1875 34.578125q0 5.5 -0.359375 12.859375q-0.359375 7.359375 -1.78125 15.25q-1.40625 7.890625 -4.59375 14.984375q-2.484375 6.03125 -7.359375 11.53125q-4.875 5.5 -10.5625 8.953125q-5.671875 3.453125 -10.640625 3.453125zm22.703125 -138.3125q-5.5 0 -9.671875 -4.078125q-4.15625 -4.078125 -4.15625 -9.75q0 -6.03125 4.15625 -10.109375q4.171875 -4.078125 9.671875 -4.078125q6.203125 0 10.28125 4.078125q4.078125 4.078125 4.078125 10.109375q0 5.671875 -4.078125 9.75q-4.078125 4.078125 -10.28125 4.078125z" fill-rule="nonzero"/><path fill="#000000" fill-opacity="0.0" d="m-29.559055 59.87664l1004.0 0l0 571.33856l-1004.0 0z" fill-rule="evenodd"/><path fill="#f1be32" d="m251.05463 580.3985q-21.609375 -1.375 -41.859375 -7.359375q-20.234375 -5.984375 -33.34375 -18.640625q-13.109375 -12.640625 -13.109375 -34.265625q0 -24.375 2.984375 -42.546875q3.0 -18.171875 3.0 -39.328125q0 -13.34375 -5.984375 -23.6875q-5.984375 -10.359375 -14.953125 -17.015625q-8.96875 -6.671875 -19.09375 -8.984375q-3.21875 -0.90625 -5.984375 -2.96875q-2.75 -2.078125 -2.75 -4.84375q0 -2.296875 2.296875 -4.828125q2.296875 -2.53125 7.359375 -3.90625q12.421875 -3.234375 21.15625 -9.203125q8.75 -5.984375 13.34375 -15.40625q4.609375 -9.4375 4.609375 -22.78125q0 -21.609375 -3.0 -39.78125q-2.984375 -18.171875 -2.984375 -42.09375q0 -21.625 13.328125 -34.734375q13.34375 -13.109375 34.046875 -19.3125q20.703125 -6.21875 42.328125 -7.140625q3.21875 0 5.75 1.84375q2.53125 1.84375 2.53125 5.0625q0 3.6875 -4.140625 4.84375q-4.140625 1.140625 -7.828125 1.59375q-14.71875 1.84375 -25.296875 5.984375q-10.578125 4.140625 -16.109375 13.34375q-5.515625 9.1875 -5.515625 26.21875q0 15.640625 1.609375 28.75q1.609375 13.109375 2.984375 25.296875q1.390625 12.1875 1.390625 25.53125q0 15.171875 -9.4375 27.375q-9.421875 12.1875 -22.3125 20.46875q-12.875 8.28125 -22.53125 12.40625q-1.375 0.46875 -0.6875 0.9375q0.6875 0.453125 1.609375 0.90625q5.515625 1.390625 14.484375 6.90625q8.96875 5.515625 17.9375 13.796875q8.984375 8.28125 14.953125 18.40625q5.984375 10.109375 5.984375 21.609375q0 13.34375 -1.390625 25.53125q-1.375 12.1875 -2.984375 25.296875q-1.609375 13.109375 -1.609375 28.75q0 16.5625 5.28125 25.984375q5.296875 9.4375 15.421875 13.8125q10.125 4.375 24.84375 5.75q3.671875 0.453125 7.8125 1.140625q4.140625 0.703125 4.140625 4.375q0 3.21875 -2.53125 5.28125q-2.53125 2.078125 -5.75 1.625z" fill-rule="nonzero"/><path fill="#f1be32" d="m285.76465 438.32037q-4.40625 0.4375 -4.40625 -4.40625q0 -13.203125 2.421875 -20.015625q2.421875 -6.828125 7.265625 -7.703125q23.75 -3.515625 49.921875 -7.03125q26.1875 -3.53125 49.953125 -5.28125q3.953125 -0.453125 5.265625 1.53125q1.328125 1.984375 1.328125 5.0625q0 13.203125 -1.765625 18.484375q-1.75 5.28125 -7.03125 6.15625q-23.3125 3.515625 -51.03125 7.265625q-27.71875 3.734375 -51.921875 5.9375z" fill-rule="nonzero"/><path fill="#f1be32" d="m457.2578 643.4141q-3.671875 0 -6.671875 -3.6875q-2.984375 -3.671875 -2.984375 -7.8125l0 -420.4375q0 -6.4375 4.828125 -11.265625q4.828125 -4.828125 11.953125 -8.046875q7.140625 -3.234375 13.34375 -4.609375q6.2187805 -1.375 8.0469055 -1.375q4.140625 0 7.8125 3.0q3.6875 2.984375 3.6875 7.578125l0 426.42188q0 6.890625 -5.0625 10.796875q-5.046875 3.921875 -12.1875305 5.984375q-7.125 2.078125 -13.34375 2.765625q-6.203125 0.6875 -9.421875 0.6875z" fill-rule="nonzero"/><path fill="#f1be32" d="m551.76465 438.32037q-4.40625 0.4375 -4.40625 -4.40625q0 -13.203125 2.421875 -20.015625q2.421875 -6.828125 7.265625 -7.703125q23.75 -3.515625 49.921875 -7.03125q26.1875 -3.53125 49.953125 -5.28125q3.953125 -0.453125 5.265625 1.53125q1.328125 1.984375 1.328125 5.0625q0 13.203125 -1.765625 18.484375q-1.75 5.28125 -7.03125 6.15625q-23.3125 3.515625 -51.03125 7.265625q-27.71875 3.734375 -51.921875 5.9375z" fill-rule="nonzero"/><path fill="#f1be32" d="m693.8203 580.3985q-3.21875 0.453125 -5.75 -1.625q-2.53125 -2.0625 -2.53125 -5.28125q0 -3.671875 4.140625 -4.375q4.140625 -0.6875 7.828125 -1.140625q14.71875 -1.375 24.828125 -5.75q10.125 -4.375 15.40625 -13.8125q5.296875 -9.421875 5.296875 -25.984375q0 -15.640625 -1.390625 -28.75q-1.375 -13.109375 -2.984375 -25.296875q-1.609375 -12.1875 -1.609375 -25.53125q0 -11.5 5.984375 -21.609375q5.984375 -10.125 14.953125 -18.40625q8.96875 -8.28125 17.9375 -13.796875q8.96875 -5.515625 14.484375 -6.90625q0.921875 -0.453125 1.609375 -0.90625q0.703125 -0.46875 -0.6875 -0.9375q-9.65625 -4.125 -22.3125 -12.40625q-12.640625 -8.28125 -22.3125 -20.46875q-9.65625 -12.203125 -9.65625 -27.375q0 -13.34375 1.609375 -25.53125q1.609375 -12.1875 2.984375 -25.296875q1.390625 -13.109375 1.390625 -28.75q0 -17.03125 -5.515625 -26.21875q-5.515625 -9.203125 -16.109375 -13.34375q-10.578125 -4.140625 -25.296875 -5.984375q-3.671875 -0.453125 -7.8125 -1.59375q-4.140625 -1.15625 -4.140625 -4.84375q0 -3.21875 2.53125 -5.0625q2.53125 -1.84375 5.75 -1.84375q21.609375 0.921875 42.3125 7.140625q20.703125 6.203125 34.046875 19.3125q13.34375 13.109375 13.34375 34.734375q0 23.921875 -3.0 42.09375q-2.984375 18.171875 -2.984375 39.78125q0 13.34375 4.59375 22.78125q4.609375 9.421875 13.578125 15.40625q8.96875 5.96875 20.921875 9.203125q5.0625 1.375 7.359375 3.90625q2.296875 2.53125 2.296875 4.828125q0 2.765625 -2.765625 4.84375q-2.75 2.0625 -5.96875 2.96875q-9.65625 2.3125 -18.859375 8.984375q-9.203125 6.65625 -15.1875 17.015625q-5.96875 10.34375 -5.96875 23.6875q0 21.15625 2.984375 39.328125q3.0 18.171875 3.0 42.546875q0 21.625 -13.125 34.265625q-13.109375 12.65625 -33.34375 18.640625q-20.234375 5.984375 -41.859375 7.359375z" fill-rule="nonzero"/></g></svg>