<svg version="1.1" viewBox="0.0 0.0 960.0 720.0" fill="none" stroke="none" stroke-linecap="square" stroke-miterlimit="10" xmlns:xlink="http://www.w3.org/1999/xlink" xmlns="http://www.w3.org/2000/svg"><clipPath id="g27d3480c073_0_12.0"><path d="m0 0l960.0 0l0 720.0l-960.0 0l0 -720.0z" clip-rule="nonzero"/></clipPath><g clip-path="url(#g27d3480c073_0_12.0)"><path fill="#000000" fill-opacity="0.0" d="m0 0l960.0 0l0 720.0l-960.0 0z" fill-rule="evenodd"/><path fill="#4a171e" d="m120.0 174.60878l0 0c0 -28.408524 23.029648 -51.43818 51.43817 -51.43818l617.12366 0c13.642273 0 26.725769 5.419365 36.372253 15.065895c9.646545 9.64653 15.065918 22.730026 15.065918 36.372284l0 434.72998c0 28.408508 -23.029663 51.43817 -51.43817 51.43817l-617.12366 0c-28.408524 0 -51.43817 -23.029663 -51.43817 -51.43817z" fill-rule="evenodd"/><path fill="#f1be32" d="m166.06299 123.1706l627.874 0c12.216675 0 23.932983 4.85305 32.571472 13.491539c8.638489 8.638489 13.491516 20.354797 13.491516 32.571457l0 46.06299c0 0.0033111572 -0.0026855469 0.005996704 -0.0059814453 0.005996704l-719.994 -0.005996704l0 0c-0.0033111572 0 -0.005996704 -0.0026855469 -0.005996704 -0.005996704l0.005996704 -46.05699l0 0c0 -25.439896 20.623108 -46.062996 46.06299 -46.062996z" fill-rule="evenodd"/><path fill="#000000" fill-opacity="0.0" d="m120.83465 217.7874l718.3307 0l0 442.99213l-718.3307 0z" fill-rule="evenodd"/><path fill="#f1be32" d="m190.47096 335.2524q-0.203125 -5.578125 2.90625 -10.828125q3.109375 -5.265625 8.09375 -8.84375q5.0 -3.578125 10.640625 -3.796875l68.32814 -1.984375q3.71875 20.0625 3.546875 35.515625q-8.40625 7.171875 -16.828125 10.84375q-8.421875 3.671875 -15.375015 5.359375l-6.96875 218.60934l0 -5.578125q10.25 0 18.375015 3.4375q8.140625 3.4375 13.34375 10.125q0 11.46875 -1.328125 17.65625q-1.3125 6.203125 -5.953125 18.109375l-39.000015 0q-13.53125 0 -20.546875 -6.5625q-7.0 -6.546875 -8.734375 -15.0q-1.71875 -8.453125 -2.15625 -20.84375l-8.34375 -246.21872zm101.436905 167.32812q0 -7.109375 1.578125 -13.34375q1.59375 -6.25 6.234375 -15.765625l114.37503 -6.8125q4.0 11.140625 4.0 20.390625q0 15.421875 -8.8125 37.390594q-21.40625 0.6875 -42.984406 0.6875q-34.78125 0 -71.609375 -2.09375q-2.78125 -13.1874695 -2.78125 -20.453094z" fill-rule="nonzero"/><path fill="#f1be32" d="m448.4001 245.83052q10.921875 -7.375 25.078125 -10.328125q14.171875 -2.953125 28.0 -2.953125q11.328125 0 25.484375 3.78125l-1.875 396.57812q-21.171875 6.546875 -35.203125 6.546875q-13.203125 0 -30.71875 -5.921875l-10.765625 -387.70312z" fill-rule="nonzero"/><path fill="#f1be32" d="m551.67804 502.58054q0 -7.109375 1.578125 -13.34375q1.59375 -6.25 6.234375 -15.765625l114.375 -6.8125q4.0 11.140625 4.0 20.390625q0 15.421875 -8.8125 37.390594q-21.40625 0.6875 -42.984375 0.6875q-34.78125 0 -71.609375 -2.09375q-2.78125 -13.1874695 -2.78125 -20.453094zm221.53906 78.890594q-0.4375 12.390625 -2.171875 20.84375q-1.71875 8.453125 -8.734375 15.0q-7.0 6.5625 -20.53125 6.5625l-39.03125 0q-4.609375 -11.921875 -5.9375 -18.109375q-1.3125 -6.1875 -1.3125 -17.65625q5.203125 -6.6875 13.328125 -10.125q8.140625 -3.4375 18.390625 -3.4375l0 5.578125l-6.96875 -218.60934q-6.953125 -1.6875 -15.375 -5.359375q-8.421875 -3.671875 -16.828125 -10.84375q-0.171875 -15.453125 3.546875 -35.515625l68.328125 1.984375q5.640625 0.21875 10.625 3.796875q5.0 3.578125 8.109375 8.84375q3.109375 5.25 2.90625 10.828125l-8.34375 246.21872z" fill-rule="nonzero"/><path fill="#000000" fill-opacity="0.0" d="m266.44882 109.63149l552.75586 -4.031494l0 120.314964l-552.75586 4.031494z" fill-rule="evenodd"/><path fill="#4a171e" d="m304.7916 190.88588q0 -1.8437958 0.515625 -3.8007355q0.53125 -1.9726715 1.4218445 -3.2760773l3.874878 0.706131l4.3592834 -37.814056l-6.2185974 -0.84529114q-0.7655945 -2.010086 -0.7655945 -4.103897q0 -2.140686 0.8437195 -4.3656464q2.140564 -1.0312653 7.327942 -1.694107q5.1873474 -0.66285706 9.218506 -0.69226074q3.765503 -0.02746582 9.249725 0.10441589l1.4062195 0.63038635q0.8905945 2.493576 2.437439 8.560577q1.5624695 6.0668945 5.312378 21.368073q0.6093445 2.3862457 1.343689 5.396591q1.9218445 -7.0298157 4.749878 -19.894547l1.0155945 -4.3981476l0.203125 -0.0014801025l-6.702942 -1.0761414q-0.9687195 -2.2586212 -0.9687195 -4.8368073q0 -1.7031708 0.43746948 -3.675171q3.9217834 -1.2942505 8.171661 -1.8408966q4.2655334 -0.5623779 9.312256 -0.5991821l1.3280945 -0.009689331q2.140564 -0.015609741 6.0935974 0.1274414l1.421814 0.63027954q2.578064 9.34082 4.937378 22.66771q2.359314 13.326904 3.5780334 24.458939l0.109375 0.9992218q0.046875 0.2809143 0.203125 1.9204407q0.171875 1.6237946 0.171875 3.1238403q0 1.8125458 -0.375 3.5965729q-0.59375 2.6606598 -2.171814 4.4065857q-1.5780945 0.6677704 -3.2967834 1.0240631q-1.7030945 0.3561859 -3.9686584 0.37271118q-2.218689 0.016174316 -4.421753 -0.48338318q-2.203064 -0.48394775 -2.9217834 -1.4474792l1.453064 -9.245224l-2.421814 -25.373642l0.203125 -13.517456l-1.2499695 0.009109497l-1.984314 13.858597q-3.953003 14.669846 -7.218567 22.725128q1.1249695 2.2106018 1.9530945 4.9077606q0.8280945 2.6971588 1.0312195 5.2894897q-1.7030945 1.6218414 -4.624878 2.5337982q-2.921814 0.9119568 -6.1873474 0.93577576q-3.3592834 0.024505615 -6.124817 -0.8772278q-2.765564 -0.9173584 -4.0155334 -2.5645294q0.203125 -4.079712 2.015564 -7.889908l-7.1716614 -25.90152l-2.984314 -12.197311l-1.3749695 0.21316528l1.9687195 13.657883q-0.15625 7.1419525 -0.53125 14.535507q-0.359375 7.393448 -0.7968445 11.709244l0.046875 -3.3569336E-4q-0.328125 2.5493317 -1.7187195 4.5282745q-1.3905945 1.9633179 -3.5155334 3.0726013q-2.124939 1.0936584 -4.578003 1.1115417q-6.452942 0.047073364 -9.327881 -5.4946136q-0.078125 -0.8119507 -0.078125 -1.265091zm83.50232 -8.031097q3.5467834 1.3960571 5.6873474 2.1460876q2.140564 0.7500305 4.703003 1.2938538q2.562439 0.54382324 5.109253 0.5252533q1.1249695 -0.0082092285 1.609314 -0.21487427q0.125 -0.15716553 0.21875 -0.5016022q0.109375 -0.34455872 0.109375 -0.7039337q0 -0.8125305 -0.9374695 -1.3369598q-1.4530945 -0.78630066 -5.156128 -2.4937134q-5.0935974 -2.384781 -8.062286 -4.2537994q-2.9530334 -1.8847656 -4.9998474 -5.010544q-2.0312195 -3.1415253 -2.0312195 -7.9072723q0 -6.812683 4.0780334 -10.98317q4.078003 -4.170471 12.905914 -4.2348633q10.530945 -0.076797485 16.390167 2.630539q0.28125 1.1698456 0.28125 2.9355316q0 3.3907013 -1.0468445 6.9296875q-1.0468445 3.5389862 -2.749939 5.2545776q-2.296814 -0.74890137 -6.499817 -2.4214172q-3.0624084 -1.1808167 -4.859253 -1.8239899q-1.796814 -0.65878296 -3.2811584 -0.9448395q-0.8124695 0.20906067 -1.2968445 0.96261597q-0.48434448 0.75354004 -0.48434448 1.7691956q0 0.8750305 0.5155945 1.4806519q0.53125 0.6055145 1.1874695 0.9444885q0.671875 0.3388672 1.9218445 0.8922577q0.6562195 0.276474 1.2187195 0.49113464q0.5624695 0.21464539 1.0468445 0.4142456q3.1561584 1.3207703 4.9685974 2.1513214q1.8124695 0.83055115 3.5155334 1.990036q3.093689 2.1181183 4.874878 4.8552094q1.781189 2.7214508 1.781189 5.9871674q0 4.531372 -2.5624084 7.8470154q-2.562439 3.3000336 -6.5623474 4.813614q-2.093689 0.7809143 -4.578003 1.1427917q-2.4842834 0.36187744 -5.7967224 0.38604736q-3.906128 0.02848816 -8.046661 -1.4413605q-4.140503 -1.4854584 -6.312317 -5.0322266q0.03125 -2.453415 0.6562195 -4.286148q0.625 -1.8483582 2.484314 -4.2526093zm38.979736 -0.0811615q0 -6.578293 0.15625 -9.938904q0.17184448 -3.3763428 0.8593445 -9.928406l-4.640503 -0.55992126q-0.8437195 -2.6189117 -1.1093445 -4.679535q-0.265625 -2.060608 -0.265625 -5.3263245q0.640625 -0.56718445 2.156189 -1.3595123q1.5155945 -0.8079529 3.5936584 -1.4012451q2.078064 -0.60891724 4.218628 -0.62454224q4.890503 -0.03565979 6.921692 2.05896q2.0468445 2.0788727 2.0468445 6.2664795q0 2.343811 -0.6875 6.348938q-1.1405945 6.430359 -1.1405945 6.742874q0 0.203125 0.28125 0.38858032q0.296875 0.16970825 0.6093445 0.16743469q0.359375 -0.0026245117 0.484375 -0.28479004q-0.03125 0.17210388 0.9374695 -4.0850677q1.1562195 -5.5710754 2.390564 -9.080185q1.2343445 -3.5247192 3.9374084 -6.0444946q2.7030334 -2.5354004 7.3435364 -2.5692596q5.7342224 -0.041809082 8.265411 3.236679q2.546814 3.2627716 2.546814 8.716034q0 4.312622 -1.4530945 9.620239q0 0.203125 0.28125 0.38858032q0.296875 0.16970825 0.6093445 0.16743469q0.375 -0.0027313232 0.484375 -0.28479004l0.5624695 -2.2697906q1.4530945 -5.9795074 2.890564 -9.943222q1.4374695 -3.9637146 4.312378 -6.8753815q2.890564 -2.911789 7.531067 -2.945633q6.093567 -0.044433594 8.781006 3.8579407q2.687439 3.8867493 2.687439 9.824417q0 4.203232 -0.796875 8.443527q-0.7812195 4.2401886 -1.656189 7.121643q-0.859375 2.8657227 -2.109314 6.624939l0.07809448 0.077560425l5.9685974 -2.5436096q3.156189 2.680191 3.6717834 7.160919q0 0.28125 -1.812439 2.3414001q-1.8124695 2.0445251 -4.781128 3.8318481q-2.968689 1.771698 -6.796692 1.7996216q-3.8280334 0.027923584 -6.2498474 -2.0169678q-2.421814 -2.0448914 -2.421814 -7.0137787q0 -5.5157776 0.21875 -11.345642q0.21875 -5.8455048 0.65625 -10.489441q-0.6875 -0.5575104 -1.8905945 -0.5956116q-1.2187195 1.1808014 -3.0311584 5.1316223q-1.8124695 3.950821 -3.3436584 8.430862q-1.5312195 4.4644165 -1.9374695 6.9674377q0.5625 3.9491272 1.7343445 7.815689q-0.7343445 1.3803864 -2.9999084 2.3344421q-2.2499695 0.9383087 -5.562378 0.9624634q-2.9842834 0.021774292 -4.687378 -0.4501953q-1.687439 -0.47209167 -2.312439 -0.98316956q-0.6249695 -0.5267029 -0.6249695 -0.6985779q-0.03125 -0.35916138 -0.203125 -1.9048157q-0.15625 -1.5614014 -0.328125 -4.3571014q-0.15621948 -2.811432 -0.15621948 -6.4052887q0 -3.4219666 0.5312195 -8.597855q0.03125 -0.64086914 0.234375 -3.0642853q0.203125 -2.4234161 0.203125 -4.407852q-0.6875 -0.5574951 -1.8905945 -0.5955963q-0.6874695 0.53627014 -3.843628 6.7313385q-3.1405334 6.1949463 -4.1874084 8.749512q-0.078125 0.5630951 -0.078125 1.0943604q0 2.0156708 0.59375 5.417679q0.6093445 3.4019012 1.4999695 6.3486176q-0.734375 1.3803864 -2.999939 2.3344269q-2.249939 0.9383087 -5.5623474 0.96247864q-2.9842834 0.021759033 -4.781128 -0.44952393q-1.796814 -0.47128296 -2.5311584 -1.0128174q-0.71875 -0.54164124 -0.71875 -0.66664124q-0.03125 -0.35916138 -0.203125 -1.9048309q-0.15625 -1.5614014 -0.32809448 -4.357086q-0.15625 -2.8114471 -0.15625 -6.4052887zm92.82663 -7.7709656q0 -1.8281708 0.40625 -3.4249268q0.40625 -1.596756 1.21875 -3.2589722l30.38977 -2.034195q0.59375 1.6988373 0.59375 4.0270233q0 4.078232 -1.968689 9.014603q-4.968628 0.20811462 -11.10907 0.25289917q-9.874756 0.072021484 -19.046387 -0.39234924q-0.484375 -2.2934113 -0.484375 -4.184082zm59.122437 6.86586q1.375 0.63061523 2.765564 1.2454987q1.406189 0.61476135 3.093689 1.2118378q0.28118896 -0.7677002 0.28118896 -2.423996q0 -1.1250153 -0.03125 -1.7341919q-0.17181396 -3.1082 -0.65618896 -9.432953q-0.484375 -6.621643 -0.734375 -10.776184q-0.234375 -4.154648 -0.234375 -7.8735046q0 -1.1250305 0.078125 -3.1412811l0.125 -1.9072113l-6.015442 -0.79989624q-0.515625 -1.4806519 -0.8125 -3.275406q-0.28125 -1.7948761 -0.28125 -3.4980469q0 -1.2812805 0.203125 -2.8296814q4.843628 -1.8791199 12.187195 -2.7452087q7.359192 -0.8661957 15.187073 -0.9232788q7.906067 -0.057662964 10.89032 0.608078l0.046875 -0.031585693q2.171814 1.2654419 3.796814 2.6598816q1.640564 1.3786926 3.140503 3.3365479q0 2.7813263 -0.67181396 6.411331q-0.65625 3.6142578 -1.6875 6.6531067q-1.031189 3.0232239 -2.124939 4.2812347q-0.96868896 0.46020508 -2.093689 0.6871643q-1.124939 0.22695923 -2.749939 0.23881531q-1.687439 0.012298584 -2.562378 -0.21569824q-0.859375 -0.2437439 -1.875 -0.7988434l-1.374939 -10.115234q-1.328064 -0.28720093 -3.218689 -0.27342224q-1.703064 0.012435913 -3.593628 0.22935486q-0.125 1.9072113 -0.28125 6.2678375q-0.078125 3.1881561 -0.25 6.1738586l-0.3125 7.018097q9.843506 -1.2749481 16.421448 -2.6510925q1.609314 2.363327 1.609314 6.113434q0 2.468811 -0.64056396 4.7391663q-0.640625 2.2547302 -1.421875 3.1042023q-1.249939 0.21224976 -3.296753 0.22717285q-3.078064 0.022445679 -6.577942 -0.5301666q-3.484314 -0.5683441 -6.624817 -1.5923462q-0.25 3.5956726 -0.609375 6.9577484q-0.359375 3.190216 -0.984375 5.5542145q-0.62493896 2.3639832 -1.921814 4.1078644q-1.656189 2.184021 -4.218628 3.2652283q-2.562439 1.0655975 -5.499878 1.0870209q-2.703003 0.019714355 -5.312317 -1.2112885q-2.609314 -1.2310028 -4.249878 -4.219116q0.031188965 -2.62529 0.65618896 -4.7236633q0.625 -2.0983582 2.437439 -4.4553986zm56.351013 -13.161331q2.374939 -0.017318726 5.265442 0.4459839q2.890564 0.46331787 5.312378 1.1331635l0 -1.2500305q0 -1.2500305 -0.0625 -2.7808685q-0.0625 -1.546463 -0.1875 -2.0299377q-0.359375 -0.68489075 -2.078064 -1.3911285q-1.718689 -0.7218628 -5.593628 -0.6936035q-2.374939 0.017318726 -4.906067 0.6295471q-2.515564 0.5964966 -5.578003 1.5876007q-1.656189 -2.7223663 -2.656189 -5.1995087q-0.98431396 -2.4772644 -0.98431396 -4.9773254q0 -0.7656555 0.125 -1.5322113q6.531067 -5.14151 16.905762 -5.2171783q5.734253 -0.04182434 10.171631 1.2227173q4.437378 1.2489166 7.296692 4.9469147q2.874878 3.697876 2.874878 10.510559q0 6.656433 -1.562439 12.917999q-1.546814 6.245819 -1.578064 6.355423l5.843567 -2.542694q1.171875 1.2414856 2.078064 3.0317993q0.90625 1.7903137 1.15625 4.132309q-0.5625 1.2072601 -2.468689 3.1118317q-1.890564 1.8888397 -4.640503 3.3620605q-2.734314 1.473114 -5.734253 1.4949951q-3.343628 0.024383545 -5.062317 -1.9318848q-1.71875 -1.9718933 -1.71875 -5.1282196q0 -1.781311 0.53125 -3.5977325l-1.203064 -0.3506012q-1.140625 6.383484 -4.812378 8.754074q-3.671814 2.3705902 -8.109192 2.402954q-2.906189 0.021194458 -5.609192 -1.5997467q-2.703064 -1.6209564 -4.406128 -4.7336273q-1.6875 -3.1127777 -1.6875 -7.3160095q0 -6.687683 3.343689 -10.196533q3.359253 -3.5245972 9.734131 -3.5710907zm4.593628 15.341904q1.015564 -0.21052551 2.406189 -1.1425781q1.390564 -0.94766235 2.484253 -2.2369232q1.09375 -1.3048859 1.28125 -2.4781647l-0.234375 -0.9670563q-2.140564 -0.26565552 -4.562378 -0.24798584q-2.062439 0.015045166 -2.828064 0.34875488q-1.281189 1.4625092 -1.281189 3.22818q0 1.2969208 0.65625 2.339035q0.67181396 1.0419922 2.078064 1.1567383zm33.34735 0.16305542q0 -1.7344208 0.078125 -8.516434q0.109375 -13.329269 0.109375 -14.5793l-3.703003 -0.5667572q-0.765625 -2.3069763 -1.09375 -4.3202667q-0.328125 -2.0132904 -0.328125 -4.075836q0 -0.8437805 0.046875 -1.2816315q0.6875 -0.6144104 2.140564 -1.4687805q1.453125 -0.8699951 3.421814 -1.5406189q1.984314 -0.6863556 4.046753 -0.70140076q4.796753 -0.034988403 6.952942 2.0899658q2.171814 2.1248474 2.171814 6.234329q0 2.515686 -0.640625 6.411087q-0.62493896 3.8952942 -1.265564 5.556259l1.453064 0.2237854l2.421814 -9.127289q1.609314 -6.183777 4.031128 -8.842133q2.421814 -2.6739807 5.453003 -2.6960907q1.984314 -0.014465332 3.937378 0.5806732q1.953064 0.5951538 2.999939 1.4625397q1.140625 2.50737 1.140625 6.663727q0 2.9063263 -0.578125 5.7543793q-0.5625 2.8479156 -1.4375 4.58873l-8.484131 -1.0631561q-2.578064 2.7532501 -5.484253 7.649582q-2.906128 4.8806915 -4.640442 8.971573l-0.046875 2.0941467l7.827881 -1.9165192q1.984314 3.016861 2.312439 7.1708374q0 0.234375 -1.828064 1.997757q-1.812439 1.7476349 -4.781128 3.238083q-2.968689 1.4904327 -6.796692 1.5183563q-3.953003 0.028823853 -6.609192 -2.0612335q-2.640564 -2.1057892 -2.796814 -7.151657q-0.03125 -0.6091614 -0.03125 -2.2967072zm49.313904 -16.141342q2.374939 -0.017318726 5.265503 0.4459839q2.890564 0.4633026 5.312317 1.1331635l0 -1.2500305q0 -1.2500458 -0.0625 -2.7808685q-0.062438965 -1.546463 -0.18743896 -2.0299377q-0.359375 -0.684906 -2.078125 -1.3911285q-1.718689 -0.7218628 -5.593567 -0.6936035q-2.374939 0.017318726 -4.906128 0.6295471q-2.515564 0.5964813 -5.578003 1.5876007q-1.656189 -2.7223663 -2.656128 -5.199524q-0.984375 -2.4772491 -0.984375 -4.9773254q0 -0.76564026 0.125 -1.532196q6.531067 -5.1415253 16.905823 -5.2171936q5.734192 -0.04182434 10.17157 1.2227325q4.437378 1.2489166 7.296692 4.9469147q2.874939 3.697876 2.874939 10.510559q0 6.656418 -1.5625 12.917984q-1.546814 6.245819 -1.578064 6.355438l5.843628 -2.542694q1.171814 1.2414856 2.078064 3.0317993q0.90618896 1.7903137 1.156189 4.132309q-0.5625 1.2072601 -2.468689 3.1118317q-1.890564 1.8888397 -4.640503 3.3620605q-2.734314 1.4730988 -5.734192 1.4949799q-3.343689 0.024383545 -5.062378 -1.9318695q-1.718689 -1.9718933 -1.718689 -5.128235q0 -1.7812958 0.53125 -3.5977173l-1.203125 -0.35061646q-1.140564 6.383499 -4.812378 8.754089q-3.671753 2.3705902 -8.109131 2.402954q-2.906189 0.021194458 -5.609253 -1.599762q-2.703064 -1.6209564 -4.406128 -4.733612q-1.687439 -3.1127777 -1.687439 -7.3160095q0 -6.687683 3.343628 -10.196533q3.359314 -3.5245972 9.734131 -3.5710907zm4.593628 15.341904q1.015625 -0.21054077 2.406189 -1.1425781q1.390564 -0.94766235 2.484314 -2.2369232q1.093689 -1.3048859 1.281189 -2.4781647l-0.234375 -0.96707153q-2.140564 -0.26564026 -4.562378 -0.24797058q-2.062439 0.015029907 -2.828003 0.34875488q-1.28125 1.4625092 -1.28125 3.22818q0 1.2969055 0.65625 2.3390198q0.671875 1.0420074 2.078064 1.1567535zm31.003723 -46.930496q0 -3.5469666 2.312439 -5.7826385q2.328064 -2.235794 7.406006 -2.2728271q5.093628 -0.037139893 7.406067 2.164795q2.328064 2.201828 2.328064 5.7487946q0 2.031311 -1.406189 3.7447357q-1.390625 1.6976929 -3.656189 2.6986084q-2.249939 1.0008087 -4.671753 1.0184784q-2.624939 0.01914978 -4.859253 -1.1052094q-2.234314 -1.1399841 -3.546753 -2.8648376q-1.312439 -1.7248535 -1.312439 -3.3498993zm4.765442 63.7482q0.078125 -0.5318451 0.078125 -1.8287506q0 -1.8594208 -0.37493896 -8.341232q-0.234375 -4.482788 -0.4375 -12.981537q-0.203125 -8.4987335 -0.203125 -10.79567q0 -2.9844666 0.125 -5.891693l-5.937378 -0.8004761q-0.84368896 -3.150177 -0.89056396 -8.149963q0.81243896 -1.0059509 2.906189 -2.1775055q2.109314 -1.1716614 4.827942 -1.9571381q2.718689 -0.7854767 5.343628 -0.80462646q3.593689 -0.0262146 5.734253 1.1144562q2.140564 1.1250458 3.062378 3.399643q0.9375 2.2744598 0.9375 5.8683167q0 3.5157166 -0.3125 7.877487q-0.296875 4.3616486 -0.34375 5.205765q-0.6875 9.005249 -0.87493896 14.538025q-0.375 9.04985 -0.921875 14.225845q-0.53125 5.191513 -1.984314 7.592804q-1.734314 2.8721008 -4.359253 4.156906q-2.624939 1.3004303 -6.546692 1.3290253q-3.906189 0.02848816 -7.015442 -1.3238678q-3.109314 -1.352356 -4.359253 -4.0464478q0.03125 -2.547165 0.76556396 -4.974457q0.71875 -2.427185 2.296814 -4.001236l8.484131 2.766327z" fill-rule="nonzero"/><path fill="#000000" fill-opacity="0.0" d="m114.2336 50.635197l176.25197 -1.2913399l0 156.37796l-176.25197 1.291336z" fill-rule="evenodd"/><path fill="#4a171e" d="m159.35422 158.13939q8.343521 -0.061141968 12.15593 3.8329163q3.8280182 3.8939362 3.8280182 9.815964q0 3.3594666 -2.312439 6.3452454q-2.296814 2.9856567 -5.999832 4.7784576q-3.6874084 1.7926788 -7.6716766 1.8218842q-4.296753 0.03147888 -7.9997864 -1.988327q-3.6873932 -2.0355377 -5.8279724 -5.051193q-2.140564 -3.0156403 -2.140564 -5.6719666q0 -5.9220276 3.8123932 -9.871948q3.8280334 -3.9500275 12.15593 -4.011032zm42.99884 -0.31504822q8.343536 -0.06112671 12.15593 3.8329315q3.8280182 3.893921 3.8280182 9.815964q0 3.3594666 -2.312439 6.34523q-2.296814 2.9856567 -5.999832 4.7784576q-3.6874084 1.7926941 -7.6716766 1.8218842q-4.281128 0.03137207 -7.9841614 -1.9884338q-3.6873932 -2.0355377 -5.843582 -5.051071q-2.140564 -3.0156403 -2.140564 -5.6719666q0 -5.9220276 3.8123932 -9.871948q3.8280182 -3.9500275 12.155914 -4.0110474zm43.014465 -0.31513977q8.327911 -0.061019897 12.140289 3.833023q3.8280334 3.8939362 3.8280334 9.815964q0 3.3594666 -2.312439 6.3452454q-2.296814 2.9856567 -5.999832 4.7784576q-3.6874084 1.7926941 -7.6560516 1.8217621q-4.296753 0.03147888 -7.999771 -1.9883118q-3.6874084 -2.0355377 -5.8435974 -5.051071q-2.140564 -3.0156555 -2.140564 -5.6719666q0 -5.922043 3.8123932 -9.871948q3.8280182 -3.9500275 12.171539 -4.011154z" fill-rule="nonzero"/><path fill="#000000" fill-opacity="0.0" d="m141.18373 185.15373l83.1181 -0.59843445l0 102.11023l-83.1181 0.5984497z" fill-rule="evenodd"/><path fill="#f1be32" d="m194.80734 274.32123q0 2.031311 -0.265625 3.3457336l-32.327286 23.420868q-1.5312042 -0.5983887 -3.6405334 -3.005127q-2.093689 -2.4224854 -3.8280182 -5.3006897q-1.7187042 -2.8939514 -2.2030792 -4.8124084l21.6557 -19.187653l-22.74942 -16.352264q0.76560974 -3.1774597 3.2967987 -6.7426605q2.5467987 -3.5809326 4.9529877 -5.020157l31.780426 17.990417q1.3593445 1.5214844 2.343689 6.4364014q0.98435974 4.914917 0.98435974 9.227539z" fill-rule="nonzero"/></g></svg>