<svg version="1.1" viewBox="0.0 0.0 944.8818897637796 944.8818897637796" fill="none" stroke="none" stroke-linecap="square" stroke-miterlimit="10" xmlns:xlink="http://www.w3.org/1999/xlink" xmlns="http://www.w3.org/2000/svg"><clipPath id="p.0"><path d="m0 0l944.8819 0l0 944.8819l-944.8819 0l0 -944.8819z" clip-rule="nonzero"/></clipPath><g clip-path="url(#p.0)"><path fill="#000000" fill-opacity="0.0" d="m0 0l944.8819 0l0 944.8819l-944.8819 0z" fill-rule="evenodd"/><defs><linearGradient id="p.1" gradientUnits="userSpaceOnUse" gradientTransform="matrix(30.73898681207697 0.0 0.0 30.73898681207697 0.0 0.0)" spreadMethod="pad" x1="-0.04277826845628588" y1="-2.820459553996212E-4" x2="-0.04288954251448593" y2="30.73870476592017"><stop offset="0.0" stop-color="#271900"/><stop offset="0.18" stop-color="#271900"/><stop offset="0.42" stop-color="#ffa200"/><stop offset="1.0" stop-color="#ffa200"/></linearGradient></defs><path fill="url(#p.1)" d="m-1.3149606 105.66089l0 0c0 -58.357796 47.308342 -105.66614 105.666145 -105.66614l733.5496 0c28.024353 0 54.90094 11.13265 74.717224 30.948896c19.816223 19.816244 30.948914 46.69284 30.948914 74.71724l0 733.5496c0 58.357788 -47.30835 105.66614 -105.66614 105.66614l-733.5496 0c-58.3578 0 -105.666145 -47.30835 -105.666145 -105.66614z" fill-rule="evenodd"/><path stroke="#271900" stroke-width="16.0" stroke-linejoin="round" stroke-linecap="butt" d="m-1.3149606 105.66089l0 0c0 -58.357796 47.308342 -105.66614 105.666145 -105.66614l733.5496 0c28.024353 0 54.90094 11.13265 74.717224 30.948896c19.816223 19.816244 30.948914 46.69284 30.948914 74.71724l0 733.5496c0 58.357788 -47.30835 105.66614 -105.66614 105.66614l-733.5496 0c-58.3578 0 -105.666145 -47.30835 -105.666145 -105.66614z" fill-rule="evenodd"/><path fill="#000000" fill-opacity="0.0" d="m-12.409449 674.2879l969.70074 0l0 302.8661l-969.70074 0z" fill-rule="evenodd"/><path fill="#000000" d="m42.73911 868.186q-2.296875 0 -3.359375 -0.765625q-1.046875 -0.765625 -1.046875 -2.109375q0 -1.734375 1.71875 -2.203125q1.734375 -0.484375 3.46875 -1.265625q4.40625 -1.71875 7.765625 -5.5625q3.359375 -3.84375 4.125 -9.59375q0.96875 -7.109375 2.109375 -19.484375q1.15625 -12.390625 2.5 -27.65625q1.34375 -15.265625 2.6875 -31.015625q0.203125 -0.953125 0.203125 -2.671875q0 -1.734375 0 -3.84375q0 -3.84375 -1.25 -5.953125q-1.25 -2.109375 -3.75 -3.46875q-2.109375 -1.140625 -4.609375 -2.1875q-2.5 -1.0625 -5.375 -1.84375q-2.296875 -0.5625 -3.75 -1.515625q-1.4375 -0.96875 -1.4375 -2.703125q0 -1.71875 1.4375 -2.390625q1.453125 -0.6875 3.5625 -0.6875q3.0625 0 7.375 0.203125q4.328125 0.1875 9.515629 0.28125q5.1875 0.09375 10.65625 0.296875q5.46875 0.1875 10.65625 0.1875q1.53125 0 2.875 1.15625q1.359375 1.140625 1.734375 2.296875q1.53125 3.84375 2.6875 7.015625q1.15625 3.15625 2.6875 7.0l27.65625 65.09375q0.375 0.765625 0.859375 0.765625q0.484375 0 0.671875 -0.765625l25.156242 -60.484375q1.53125 -7.484375 2.390625 -11.796875q0.875 -4.328125 1.640625 -6.640625q0.765625 -2.484375 3.265625 -2.484375l8.640625 0q8.4375 -0.390625 17.75 -1.25q9.3125 -0.875 14.6875 -0.875q2.109375 0 3.546875 0.6875q1.453125 0.671875 1.453125 2.390625q0 1.734375 -1.34375 2.5q-1.34375 0.765625 -3.078125 1.34375q-0.765625 0.1875 -2.015625 0.765625q-1.25 0.578125 -2.015625 0.953125q-5.765625 2.6875 -8.359375 5.953125q-2.578125 3.265625 -2.203125 10.5625q0.578125 14.015625 1.15625 24.0q0.578125 9.984375 1.046875 18.4375q0.484375 8.453125 1.15625 17.765625q0.671875 9.296875 1.4375 22.171875q0.390625 4.796875 4.234375 7.78125q3.84375 2.96875 9.59375 4.5q1.734375 0.578125 2.96875 1.34375q1.25 0.765625 1.25 2.6875q0 1.34375 -1.0625 2.125q-1.046875 0.765625 -2.578125 0.765625q-4.03125 0 -9.890625 -0.203125q-5.859375 -0.1875 -11.625 -0.375q-5.75 -0.203125 -9.59375 -0.203125q-3.828125 0 -8.921875 0.203125q-5.09375 0.1875 -10.375 0.46875q-5.28125 0.296875 -9.5 0.296875q-1.53125 0 -2.78125 -0.765625q-1.25 -0.765625 -1.25 -2.109375q0 -1.734375 1.25 -2.78125q1.25 -1.0625 2.96875 -1.453125q7.296875 -1.53125 10.171875 -3.921875q2.890625 -2.40625 2.5 -8.171875q-0.5625 -11.515625 -0.953125 -23.421875q-0.390625 -11.90625 -0.671875 -23.515625q-0.28125 -11.625 -0.859375 -21.984375q0 -1.15625 -0.578125 -1.0625q-0.578125 0.09375 -1.15625 1.4375l-34.937492 86.59375q-1.15625 3.078125 -3.171875 2.5q-2.015625 -0.578125 -2.78125 -2.109375q-9.984375 -22.28125 -20.546875 -43.96875q-10.5625 -21.703125 -18.8125 -42.046875q-0.765625 -1.921875 -2.015625 -1.34375q-1.25 0.578125 -1.4375 3.0625q-0.390625 8.640625 -0.484375 20.171875q-0.09375 11.515625 0.09375 23.234375q0.1875 11.703125 0.1875 21.109375q0 5.375 3.453125 8.453125q3.46875 3.0625 11.140625 4.984375q1.734375 0.390625 3.453125 1.25q1.734375 0.859375 1.734375 2.78125q0 1.34375 -1.546875 2.125q-1.53125 0.765625 -3.0625 0.765625q-5.1875 0 -8.0625 -0.203125q-2.875 -0.1875 -5.28125 -0.28125q-2.40625 -0.09375 -6.4375 -0.09375q-4.406254 0 -9.406254 0.1875q-4.984375 0.1875 -8.453125 0.375q-3.453125 0.203125 -3.453125 0.203125zm201.22253 2.109375q-6.5312347 0 -12.57811 -1.4375q-6.046875 -1.4375 -11.234375 -4.890625q-1.921875 -3.078125 -2.6875 -9.5q-0.765625 -6.4375 -0.578125 -13.9375q0 -2.484375 4.03125 -2.484375q1.734375 0 2.984375 1.15625q1.25 1.140625 1.625 2.109375q3.84375 7.671875 8.453125 13.71875q4.609375 6.046875 11.718735 6.046875q4.984375 0 7.375 -3.0625q2.40625 -3.078125 2.40625 -6.71875q0 -5.0 -4.03125 -8.265625q-4.03125 -3.265625 -8.82811 -5.5625q-5.375 -2.6875 -10.5625 -6.234375q-5.1875 -3.5625 -8.640625 -8.9375q-3.453125 -5.375 -3.453125 -13.0625q0 -7.859375 4.3125 -13.515625q4.328125 -5.671875 11.625 -8.84375q7.296875 -3.171875 15.937485 -3.171875q6.53125 0 12.1875 1.4375q5.671875 1.4375 7.78125 2.78125q1.53125 1.921875 2.390625 7.40625q0.875 5.46875 0.875 12.375q0 2.109375 -3.84375 2.109375q-1.34375 0 -2.890625 -1.046875q-1.53125 -1.0625 -1.90625 -2.015625q-2.5 -7.6875 -6.4375 -11.515625q-3.9375 -3.84375 -8.546875 -3.84375q-4.21875 0 -7.578125 2.6875q-3.3593597 2.6875 -3.3593597 7.09375q0 3.84375 3.9374847 7.015625q3.9375 3.171875 9.109375 5.859375q12.671875 6.515625 18.046875 12.671875q5.375 6.140625 5.375 16.5q0 12.875 -8.25 19.984375q-8.25 7.09375 -24.765625 7.09375zm45.70288 -2.109375q-1.15625 0 -2.5 -0.765625q-1.34375 -0.765625 -1.34375 -2.109375q0 -1.546875 1.4375 -2.5q1.4375 -0.96875 2.96875 -1.546875q2.890625 -0.953125 5.0 -2.203125q2.109375 -1.25 2.109375 -5.078125l0 -44.546875q0 -3.84375 -1.15625 -6.625q-1.140625 -2.78125 -4.40625 -3.359375q-0.765625 -0.203125 -1.546875 -0.96875q-0.765625 -0.765625 -0.765625 -2.6875q0 -2.875 2.109375 -3.453125q4.609375 -1.15625 10.375 -2.78125q5.765625 -1.640625 11.234375 -3.546875q5.46875 -1.921875 9.109375 -3.84375q0.78125 -0.390625 1.34375 -0.765625q0.578125 -0.390625 1.15625 -0.390625q1.921875 0 1.921875 2.3125q0 1.53125 -0.484375 5.09375q-0.46875 3.546875 -0.46875 6.234375q0 1.90625 0.375 2.296875l0.390625 0q6.140625 -6.140625 13.046875 -9.59375q6.921875 -3.46875 15.171875 -3.46875q5.765625 0 10.84375 4.421875q5.09375 4.421875 7.40625 10.75l0.953125 0q5.5625 -7.296875 12.671875 -11.234375q7.109375 -3.9375 15.9375 -3.9375q5.953125 0 10.84375 3.265625q4.890625 3.265625 7.859375 9.421875q2.984375 6.140625 2.984375 14.96875l0 42.625q0 3.84375 2.109375 5.0q2.125 1.140625 5.0 2.09375q1.53125 0.578125 2.6875 1.546875q1.15625 0.953125 1.15625 2.5q0 1.34375 -1.0625 2.109375q-1.046875 0.765625 -2.203125 0.765625q-3.84375 0 -7.5 -0.296875q-3.640625 -0.28125 -7.09375 -0.46875q-3.453125 -0.203125 -6.90625 -0.203125q-3.265625 0 -6.25 0.203125q-2.96875 0.1875 -6.046875 0.46875q-3.0625 0.296875 -6.90625 0.296875q-1.15625 0 -2.125 -0.765625q-0.953125 -0.765625 -0.953125 -2.109375q0 -1.546875 1.046875 -2.5q1.0625 -0.96875 2.609375 -1.546875q2.484375 -0.765625 3.546875 -1.90625q1.0625 -1.15625 1.0625 -3.84375l0 -39.171875q0 -4.796875 -1.15625 -8.15625q-1.15625 -3.359375 -3.359375 -5.1875q-2.203125 -1.828125 -5.09375 -1.828125q-1.921875 0 -4.609375 1.0625q-2.6875 1.0625 -5.375 3.359375q-2.109375 1.921875 -2.109375 6.71875l0 41.859375q0 3.84375 1.15625 5.0q1.15625 1.140625 4.03125 2.09375q1.53125 0.578125 2.6875 1.546875q1.15625 0.953125 1.15625 2.5q0 1.34375 -1.0625 2.109375q-1.0625 0.765625 -2.203125 0.765625q-3.84375 0 -7.015625 -0.296875q-3.171875 -0.28125 -6.140625 -0.46875q-2.96875 -0.203125 -6.4375 -0.203125q-3.265625 0 -6.234375 0.203125q-2.96875 0.1875 -6.046875 0.46875q-3.078125 0.296875 -6.90625 0.296875q-1.15625 0 -2.125 -0.765625q-0.953125 -0.765625 -0.953125 -2.109375q0 -1.546875 1.046875 -2.5q1.0625 -0.96875 2.59375 -1.546875q2.5 -0.765625 3.546875 -1.90625q1.0625 -1.15625 1.0625 -3.84375l0 -39.171875q0 -4.796875 -1.15625 -8.0625q-1.140625 -3.265625 -3.25 -5.078125q-2.109375 -1.828125 -5.0 -1.828125q-1.921875 0 -4.609375 0.96875q-2.6875 0.953125 -5.75 3.0625q-1.921875 1.34375 -1.921875 6.140625l0 42.625q0 3.265625 0.859375 4.703125q0.859375 1.4375 3.75 2.390625q1.53125 0.578125 2.578125 1.546875q1.0625 0.953125 1.0625 2.5q0 1.140625 -0.96875 2.015625q-0.953125 0.859375 -2.09375 0.859375q-3.84375 0 -7.015625 -0.296875q-3.171875 -0.28125 -6.046875 -0.46875q-2.875 -0.203125 -6.34375 -0.203125q-3.25 0 -6.71875 0.203125q-3.453125 0.1875 -7.109375 0.46875q-3.640625 0.296875 -7.46875 0.296875zm155.31467 -31.875q-2.109375 0.1875 -2.109375 -2.109375q0 -6.34375 1.15625 -9.125q1.15625 -2.78125 3.453125 -3.171875q10.5625 -1.71875 22.46875 -3.25q11.90625 -1.546875 22.46875 -2.3125q2.109375 -0.1875 2.671875 0.78125q0.578125 0.953125 0.578125 2.484375q0 6.140625 -0.765625 8.265625q-0.765625 2.109375 -3.0625 2.484375q-10.5625 1.53125 -23.34375 3.265625q-12.765625 1.734375 -23.515625 2.6875zm61.837494 31.875q-1.15625 0 -2.3125 -0.765625q-1.15625 -0.765625 -1.15625 -2.109375q0 -3.265625 3.65625 -4.234375q7.2969055 -1.53125 9.9844055 -3.828125q2.6875 -2.3125 2.6875 -8.265625l0 -87.171875q0 -6.140625 -2.40625 -8.734375q-2.390625 -2.59375 -9.1094055 -4.125q-2.3125 -0.578125 -3.1875 -1.71875q-0.859375 -1.15625 -0.859375 -2.3125q0 -1.34375 1.0625 -2.203125q1.0625 -0.875 2.78125 -0.875q4.2344055 0 9.2187805 0.203125q5.0 0.1875 9.796875 0.484375q4.796875 0.28125 8.640625 0.28125q8.0625 0 17.5625 0q9.5 0 18.140625 0q8.265625 0 15.078125 -1.046875q6.8125 -1.0625 11.03125 -1.0625q1.546875 0 3.171875 0.859375q1.640625 0.859375 1.828125 3.171875q0.390625 4.796875 0.578125 9.796875q0.1875 4.984375 0.28125 9.5q0.09375 4.5 0.09375 7.96875q0 3.828125 -2.484375 3.828125q-0.96875 0 -2.3125 -0.765625q-1.34375 -0.765625 -1.71875 -2.5q-1.34375 -4.984375 -2.984375 -9.109375q-1.625 -4.125 -4.3125 -6.8125q-2.5 -2.5 -5.859375 -3.75q-3.359375 -1.25 -8.359375 -1.25l-12.09375 0q-4.796875 0 -7.875 2.3125q-3.0625 2.296875 -3.0625 6.515625q0 3.265625 0 7.78125q0 4.515625 0 7.78125q0 4.21875 0 9.21875q0 4.984375 0 9.40625q0 2.484375 1.34375 3.546875q1.34375 1.046875 3.640625 1.046875q4.421875 0 8.921875 0q4.515625 0 8.9375 0q5.0 0 7.203125 -3.0625q2.203125 -3.078125 3.9375 -7.296875q0.765625 -1.734375 1.8125 -2.59375q1.0625 -0.859375 2.21875 -0.859375q0.953125 0 1.71875 1.15625q0.78125 1.140625 0.578125 3.25q-0.375 4.234375 -0.671875 7.984375q-0.28125 3.734375 -0.28125 6.609375q0 3.84375 0.1875 6.34375q0.1875 2.484375 0.578125 6.90625q0.390625 2.875 -0.28125 4.125q-0.671875 1.25 -1.640625 1.25q-1.34375 0 -2.6875 -1.34375q-1.34375 -1.34375 -1.921875 -3.265625q-1.71875 -5.953125 -3.9375 -8.0625q-2.203125 -2.109375 -5.859375 -2.109375q-2.109375 0 -4.421875 0q-2.296875 0 -4.40625 0q-2.6875 0 -5.5625 0q-2.875 0 -5.5625 0q-2.125 0 -3.1875 1.15625q-1.046875 1.140625 -1.046875 3.265625q0 8.640625 0.1875 18.046875q0.203125 9.40625 0.203125 18.046875q0 5.953125 3.359375 8.265625q3.359375 2.296875 11.609375 4.015625q1.734375 0.390625 2.6875 1.25q0.96875 0.859375 0.96875 2.78125q0 1.34375 -0.78125 2.125q-0.765625 0.765625 -2.296875 0.765625q-4.03125 0 -10.171875 -0.203125q-6.140625 -0.1875 -12.203125 -0.375q-6.046875 -0.203125 -9.875 -0.203125q-3.84375 0 -8.9375 0.203125q-5.078125 0.1875 -10.359375 0.46875q-5.2812805 0.296875 -9.5000305 0.296875zm121.527985 2.109375q-5.5625 0 -10.171875 -2.40625q-4.609375 -2.390625 -7.296875 -6.515625q-2.6875 -4.140625 -2.6875 -9.125q0 -6.71875 4.3125 -11.328125q4.328125 -4.609375 12.578125 -8.25l16.515625 -7.296875q3.84375 -1.734375 4.796875 -3.171875q0.96875 -1.4375 0.96875 -5.09375l0.1875 -10.5625q0.1875 -5.5625 -1.734375 -8.53125q-1.921875 -2.984375 -5.953125 -2.984375q-2.296875 0 -4.796875 1.0625q-2.5 1.046875 -3.640625 2.390625q-0.578125 0.765625 -0.78125 1.734375q-0.1875 0.953125 -0.1875 1.921875q0 1.15625 0.1875 2.984375q0.203125 1.8125 0.203125 2.96875q0 1.34375 -3.265625 3.171875q-3.265625 1.8125 -7.5 3.265625q-4.21875 1.4375 -7.28125 1.4375q-1.546875 0 -2.609375 -1.25q-1.046875 -1.25 -1.046875 -3.171875q0 -3.078125 2.109375 -5.953125q2.125 -2.875 7.109375 -6.90625q5.1875 -4.234375 11.328125 -7.5q6.140625 -3.265625 12.09375 -5.28125q5.953125 -2.015625 10.171875 -2.015625q10.953125 0 17.46875 7.015625q6.53125 7.0 6.15625 18.71875l-0.96875 37.25q-0.1875 4.421875 1.4375 7.59375q1.640625 3.15625 4.140625 3.15625q3.453125 0 6.140625 -2.5q0.578125 -0.578125 1.15625 -0.578125q0.953125 0 1.625 0.671875q0.671875 0.671875 0.671875 1.640625q0 2.296875 -3.84375 6.140625q-3.640625 3.65625 -7.875 5.46875q-4.21875 1.828125 -8.828125 1.828125q-11.125 0 -18.625 -11.140625l-0.375 0q-6.34375 5.953125 -11.34375 8.546875q-4.984375 2.59375 -10.546875 2.59375zm11.90625 -13.25q1.71875 0 2.875 -0.578125q1.15625 -0.578125 2.109375 -1.921875q0.578125 -0.765625 0.859375 -1.90625q0.296875 -1.15625 0.296875 -2.5l0.578125 -14.78125q0 -1.734375 -0.578125 -2.203125q-0.578125 -0.484375 -1.34375 -0.484375q-0.390625 0 -0.875 0.09375q-0.46875 0.09375 -1.046875 0.46875q-4.609375 2.5 -7.015625 5.09375q-2.390625 2.59375 -2.390625 9.3125q0 5.5625 2.203125 7.484375q2.21875 1.921875 4.328125 1.921875zm56.261475 11.140625q-1.34375 0 -2.59375 -0.765625q-1.25 -0.765625 -1.25 -2.109375q0 -1.546875 1.25 -2.5q1.25 -0.96875 3.15625 -1.546875q4.421875 -1.34375 5.765625 -2.78125q1.34375 -1.4375 1.34375 -4.5l0 -44.75q0 -3.828125 -0.96875 -6.125q-0.953125 -2.3125 -4.21875 -3.28125q-0.953125 -0.375 -1.828125 -1.046875q-0.859375 -0.671875 -0.859375 -2.59375q0 -2.875 2.5 -3.453125q6.328125 -1.546875 14.109375 -3.9375q7.78125 -2.40625 13.53125 -5.09375q0.96875 -0.578125 2.5 -1.34375q1.53125 -0.765625 2.3125 -0.765625q1.921875 0 1.921875 2.296875q0 0.96875 -0.109375 4.046875q-0.09375 3.0625 -0.28125 6.234375q-0.1875 3.171875 -0.1875 5.078125q0 1.921875 0.765625 1.921875q2.875 -4.03125 6.8125 -8.0625q3.9375 -4.03125 8.640625 -6.71875q4.703125 -2.6875 9.5 -2.6875q7.109375 0 9.984375 2.6875q2.890625 2.6875 2.890625 6.921875q0 3.0625 -1.734375 6.8125q-1.734375 3.734375 -4.421875 6.421875q-2.6875 2.6875 -5.75 2.6875q-1.921875 0 -3.9375 -0.953125q-2.015625 -0.953125 -4.125 -1.921875q-1.921875 -0.953125 -3.84375 -1.8125q-1.921875 -0.875 -3.453125 -0.875q-5.0 0 -8.453125 3.75q-3.453125 3.734375 -3.453125 14.875l0 29.5625q0 4.234375 2.296875 6.15625q2.3125 1.90625 7.6875 3.453125q2.109375 0.578125 3.15625 1.4375q1.0625 0.859375 1.0625 2.40625q0 2.875 -3.0625 2.875q-5.765625 0 -12.6875 -0.484375q-6.90625 -0.484375 -11.890625 -0.484375q-3.265625 0 -6.921875 0.203125q-3.640625 0.1875 -7.484375 0.46875q-3.84375 0.296875 -7.671875 0.296875zm100.60022 2.109375q-5.5625 0 -10.171875 -2.40625q-4.609375 -2.390625 -7.296875 -6.515625q-2.6875 -4.140625 -2.6875 -9.125q0 -6.71875 4.3125 -11.328125q4.328125 -4.609375 12.578125 -8.25l16.515625 -7.296875q3.84375 -1.734375 4.796875 -3.171875q0.96875 -1.4375 0.96875 -5.09375l0.1875 -10.5625q0.1875 -5.5625 -1.734375 -8.53125q-1.921875 -2.984375 -5.953125 -2.984375q-2.296875 0 -4.796875 1.0625q-2.5 1.046875 -3.640625 2.390625q-0.578125 0.765625 -0.78125 1.734375q-0.1875 0.953125 -0.1875 1.921875q0 1.15625 0.1875 2.984375q0.203125 1.8125 0.203125 2.96875q0 1.34375 -3.265625 3.171875q-3.265625 1.8125 -7.5 3.265625q-4.21875 1.4375 -7.28125 1.4375q-1.546875 0 -2.609375 -1.25q-1.046875 -1.25 -1.046875 -3.171875q0 -3.078125 2.109375 -5.953125q2.125 -2.875 7.109375 -6.90625q5.1875 -4.234375 11.328125 -7.5q6.140625 -3.265625 12.09375 -5.28125q5.953125 -2.015625 10.171875 -2.015625q10.953125 0 17.46875 7.015625q6.53125 7.0 6.15625 18.71875l-0.96875 37.25q-0.1875 4.421875 1.4375 7.59375q1.640625 3.15625 4.140625 3.15625q3.453125 0 6.140625 -2.5q0.578125 -0.578125 1.15625 -0.578125q0.953125 0 1.625 0.671875q0.671875 0.671875 0.671875 1.640625q0 2.296875 -3.84375 6.140625q-3.640625 3.65625 -7.875 5.46875q-4.21875 1.828125 -8.828125 1.828125q-11.125 0 -18.625 -11.140625l-0.375 0q-6.34375 5.953125 -11.34375 8.546875q-4.984375 2.59375 -10.546875 2.59375zm11.90625 -13.25q1.71875 0 2.875 -0.578125q1.15625 -0.578125 2.109375 -1.921875q0.578125 -0.765625 0.859375 -1.90625q0.296875 -1.15625 0.296875 -2.5l0.578125 -14.78125q0 -1.734375 -0.578125 -2.203125q-0.578125 -0.484375 -1.34375 -0.484375q-0.390625 0 -0.875 0.09375q-0.46875 0.09375 -1.046875 0.46875q-4.609375 2.5 -7.015625 5.09375q-2.390625 2.59375 -2.390625 9.3125q0 5.5625 2.203125 7.484375q2.21875 1.921875 4.328125 1.921875zm49.5271 65.671875q-4.21875 0 -6.421875 -0.875q-2.21875 -0.859375 -2.21875 -2.390625q0 -1.546875 0.96875 -2.40625q0.953125 -0.859375 3.078125 -1.828125q3.0625 -1.53125 5.5625 -3.546875q2.5 -2.015625 4.984375 -7.0q1.921875 -4.03125 3.078125 -9.984375q1.15625 -5.953125 1.828125 -12.671875q0.671875 -6.71875 0.859375 -12.96875q0.1875 -6.234375 0.1875 -10.65625l0 -45.3125q0 -6.90625 -2.015625 -9.296875q-2.015625 -2.40625 -6.234375 -2.984375q-1.15625 -0.203125 -1.734375 -1.25q-0.578125 -1.0625 -0.578125 -2.40625q0 -3.0625 2.3125 -3.453125q10.359375 -2.109375 18.8125 -5.65625q8.453125 -3.5625 12.859375 -5.484375q1.546875 -0.765625 2.6875 -1.140625q1.15625 -0.390625 1.546875 -0.390625q2.6875 0 2.6875 2.6875q-0.390625 5.375 -1.453125 13.4375q-1.046875 8.0625 -1.046875 15.171875l0.1875 37.828125q0 5.953125 -0.484375 13.921875q-0.46875 7.96875 -2.015625 16.5q-1.53125 8.546875 -5.171875 16.234375q-2.875 6.53125 -8.359375 12.46875q-5.46875 5.953125 -11.8125 9.703125q-6.328125 3.75 -12.09375 3.75zm25.15625 -148.8125q-6.53125 0 -11.328125 -4.796875q-4.796875 -4.796875 -4.796875 -11.328125q0 -7.09375 4.796875 -11.890625q4.796875 -4.8125 11.328125 -4.8125q7.109375 0 11.90625 4.8125q4.796875 4.796875 4.796875 11.890625q0 6.53125 -4.796875 11.328125q-4.796875 4.796875 -11.90625 4.796875z" fill-rule="nonzero"/><path fill="#000000" fill-opacity="0.0" d="m4.1732283 118.46614l936.53546 0l0 631.1496l-936.53546 0z" fill-rule="evenodd"/><path fill="#271900" d="m57.28593 261.0174q-0.296875 -8.04689 4.1875 -15.67189q4.484371 -7.625 11.718746 -12.796875q7.25 -5.1875 15.421875 -5.5l98.85938 -2.875q5.421875 29.03125 5.15625 51.437515q-12.1875 10.359375 -24.375 15.671875q-12.171875 5.3125 -22.234375 7.765625l-10.109375 316.32812l0 -8.109375q14.84375 0 26.609375 4.984375q11.78125 4.984375 19.3125 14.640625q0 16.59375 -1.90625 25.5625q-1.90625 8.96875 -8.625 26.21875l-56.453133 0q-19.578125 0 -29.71875 -9.484375q-10.140625 -9.484375 -12.640625 -21.734375q-2.5 -12.234375 -3.140625 -30.140625l-12.062496 -356.29688zm146.76443 242.14062q0 -10.296875 2.28125 -19.328125q2.296875 -9.046875 9.03125 -22.8125l165.53123 -9.890625q5.765625 16.1875 5.765625 29.53125q0 22.34375 -12.765625 54.125q-30.96875 1.0 -62.1875 1.0q-50.328125 0 -103.64061 -3.046875q-4.015625 -19.078125 -4.015625 -29.578125z" fill-rule="nonzero"/><path fill="#271900" d="m428.78473 153.783q15.078125 -10.203125 34.640625 -14.28125q19.578125 -4.078125 38.671875 -4.078125q15.65625 0 35.1875 5.25l-2.5625 547.78125q-29.265625 9.03125 -48.625 9.03125q-18.25 0 -42.453125 -8.1875l-14.859375 -535.5156z" fill-rule="nonzero"/><path fill="#271900" d="m572.3784 503.15802q0 -10.296875 2.28125 -19.328125q2.296875 -9.046875 9.03125 -22.8125l165.53125 -9.890625q5.765625 16.1875 5.765625 29.53125q0 22.34375 -12.765625 54.125q-30.96875 1.0 -62.1875 1.0q-50.328125 0 -103.640625 -3.046875q-4.015625 -19.078125 -4.015625 -29.578125zm320.59375 114.15625q-0.640625 17.90625 -3.140625 30.140625q-2.5 12.25 -12.640625 21.734375q-10.140625 9.484375 -29.734375 9.484375l-56.4375 0q-6.71875 -17.25 -8.625 -26.21875q-1.90625 -8.96875 -1.90625 -25.5625q7.53125 -9.65625 19.296875 -14.640625q11.78125 -4.984375 26.625 -4.984375l0 8.109375l-10.109375 -316.32812q-10.0625 -2.453125 -22.25 -7.765625q-12.171875 -5.3125 -24.359375 -15.671875q-0.265625 -22.406265 5.15625 -51.437515l98.859375 2.875q8.171875 0.3125 15.40625 5.5q7.25 5.171875 11.734375 12.796875q4.484375 7.625 4.1875 15.67189l-12.0625 356.29688z" fill-rule="nonzero"/></g></svg>