<svg version="1.1" viewBox="0.0 0.0 944.8818897637796 944.8818897637796" fill="none" stroke="none" stroke-linecap="square" stroke-miterlimit="10" xmlns:xlink="http://www.w3.org/1999/xlink" xmlns="http://www.w3.org/2000/svg"><clipPath id="p.0"><path d="m0 0l944.8819 0l0 944.8819l-944.8819 0l0 -944.8819z" clip-rule="nonzero"/></clipPath><g clip-path="url(#p.0)"><path fill="#000000" fill-opacity="0.0" d="m0 0l944.8819 0l0 944.8819l-944.8819 0z" fill-rule="evenodd"/><path fill="#111111" d="m-1.3149606 105.66089l0 0c0 -58.357796 47.308342 -105.66614 105.666145 -105.66614l733.5496 0c28.024353 0 54.90094 11.13265 74.717224 30.948896c19.816223 19.816244 30.948914 46.69284 30.948914 74.71724l0 733.5496c0 58.357788 -47.30835 105.66614 -105.66614 105.66614l-733.5496 0c-58.3578 0 -105.666145 -47.30835 -105.666145 -105.66614z" fill-rule="evenodd"/><path fill="#000000" fill-opacity="0.0" d="m-12.409449 -19.840734l969.70074 0l0 302.86615l-969.70074 0z" fill-rule="evenodd"/><path fill="#d9d9d9" d="m39.772038 175.33739q-2.3125 0 -3.390625 -0.765625q-1.0625 -0.78125 -1.0625 -2.125q0 -1.75 1.734375 -2.234375q1.75 -0.484375 3.5 -1.25q4.4375 -1.75 7.8125 -5.609375q3.390625 -3.859375 4.171875 -9.671875q0.96875 -7.140625 2.125 -19.609375q1.15625 -12.484383 2.5 -27.843758q1.359375 -15.375 2.71875 -31.21875q0.1875 -0.96875 0.1875 -2.703125q0 -1.75 0 -3.875q0 -3.875 -1.265625 -6.0q-1.25 -2.125 -3.75 -3.46875q-2.140625 -1.171875 -4.65625 -2.234375q-2.5 -1.0625 -5.40625 -1.828125q-2.3125 -0.578125 -3.765625 -1.546875q-1.453125 -0.96875 -1.453125 -2.703125q0 -1.75 1.453125 -2.421875q1.453125 -0.671875 3.578125 -0.671875q3.09375 0 7.4375 0.1875q4.34375 0.1875 9.5625 0.296875q5.234379 0.09375 10.734379 0.28125q5.515625 0.1875 10.734375 0.1875q1.546875 0 2.890625 1.171875q1.359375 1.15625 1.75 2.3125q1.546875 3.875 2.703125 7.0625q1.15625 3.1875 2.703125 7.046875l27.84375 65.54688q0.390625 0.765625 0.875 0.765625q0.484375 0 0.671875 -0.765625l25.328117 -60.906258q1.546875 -7.53125 2.40625 -11.875q0.875 -4.359375 1.65625 -6.671875q0.765625 -2.515625 3.28125 -2.515625l8.703125 0q8.5 -0.390625 17.875 -1.25q9.375 -0.875 14.796875 -0.875q2.125 0 3.578125 0.671875q1.453125 0.671875 1.453125 2.421875q0 1.734375 -1.359375 2.515625q-1.359375 0.765625 -3.09375 1.34375q-0.765625 0.1875 -2.03125 0.78125q-1.25 0.578125 -2.03125 0.953125q-5.796875 2.71875 -8.40625 6.0q-2.609375 3.28125 -2.21875 10.625q0.578125 14.125 1.15625 24.171875q0.578125 10.046875 1.0625 18.5625q0.484375 8.5 1.15625 17.875008q0.6875 9.375 1.453125 22.328125q0.390625 4.84375 4.25 7.84375q3.875 2.984375 9.671875 4.53125q1.734375 0.578125 2.984375 1.359375q1.265625 0.765625 1.265625 2.703125q0 1.359375 -1.0625 2.140625q-1.0625 0.765625 -2.609375 0.765625q-4.0625 0 -9.96875 -0.203125q-5.890625 -0.1875 -11.6875 -0.375q-5.796875 -0.203125 -9.65625 -0.203125q-3.875 0 -9.0 0.203125q-5.125 0.1875 -10.4375 0.46875q-5.3125 0.296875 -9.5625 0.296875q-1.546875 0 -2.8125 -0.765625q-1.25 -0.78125 -1.25 -2.125q0 -1.75 1.25 -2.8125q1.265625 -1.0625 3.0 -1.453125q7.34375 -1.546875 10.234375 -3.953125q2.90625 -2.421875 2.53125 -8.21875q-0.59375 -11.609375 -0.984375 -23.59375q-0.375 -11.984383 -0.671875 -23.671883q-0.28125 -11.703125 -0.859375 -22.140625q0 -1.15625 -0.578125 -1.0625q-0.578125 0.09375 -1.171875 1.453125l-35.171867 87.18751q-1.171875 3.09375 -3.203125 2.515625q-2.03125 -0.578125 -2.796875 -2.125q-10.046875 -22.4375 -20.6875 -44.28125q-10.625 -21.843758 -18.953125 -42.328133q-0.765625 -1.9375 -2.03125 -1.359375q-1.25 0.578125 -1.4375 3.09375q-0.390625 8.703125 -0.484375 20.296875q-0.09375 11.59375 0.09375 23.390633q0.1875 11.796875 0.1875 21.265625q0 5.421875 3.484375 8.515625q3.484375 3.09375 11.21875 5.015625q1.734375 0.390625 3.46875 1.265625q1.75 0.859375 1.75 2.796875q0 1.359375 -1.546875 2.140625q-1.546875 0.765625 -3.09375 0.765625q-5.21875 0 -8.125 -0.203125q-2.890625 -0.1875 -5.3125 -0.28125q-2.421875 -0.09375 -6.484379 -0.09375q-4.4375 0 -9.46875 0.1875q-5.03125 0.1875 -8.515625 0.375q-3.46875 0.203125 -3.46875 0.203125zm202.6021 2.125q-6.5625 0 -12.65625 -1.453125q-6.09375 -1.4375 -11.3125 -4.921875q-1.9375 -3.09375 -2.71875 -9.5625q-0.765625 -6.484375 -0.5625 -14.03125q0 -2.5 4.0625 -2.5q1.734375 0 2.984375 1.15625q1.265625 1.15625 1.65625 2.125q3.859375 7.734375 8.5 13.828125q4.640625 6.078125 11.79686 6.078125q5.015625 0 7.4375 -3.09375q2.421875 -3.09375 2.421875 -6.765625q0 -5.015625 -4.0625 -8.296875q-4.0625 -3.296875 -8.89061 -5.625q-5.421875 -2.703125 -10.640625 -6.28125q-5.21875 -3.578125 -8.703125 -8.984375q-3.46875 -5.4062576 -3.46875 -13.140633q0 -7.9375 4.34375 -13.640625q4.359375 -5.703125 11.703125 -8.890625q7.34375 -3.1875 16.04686 -3.1875q6.5625 0 12.265625 1.453125q5.703125 1.453125 7.828125 2.796875q1.546875 1.9375 2.421875 7.453125q0.875 5.5 0.875 12.46875q0 2.125 -3.875 2.125q-1.34375 0 -2.890625 -1.0625q-1.546875 -1.0625 -1.9375 -2.03125q-2.515625 -7.734375 -6.484375 -11.59375q-3.953125 -3.875 -8.59375 -3.875q-4.25 0 -7.6406097 2.703125q-3.375 2.703125 -3.375 7.15625q0 3.859375 3.953125 7.0625q3.9687347 3.1875 9.187485 5.890625q12.765625 6.578125 18.171875 12.765633q5.421875 6.171875 5.421875 16.625q0 12.953125 -8.328125 20.109375q-8.3125 7.140625 -24.937485 7.140625zm46.01976 -2.125q-1.15625 0 -2.515625 -0.765625q-1.359375 -0.78125 -1.359375 -2.125q0 -1.546875 1.453125 -2.515625q1.453125 -0.96875 3.0 -1.546875q2.90625 -0.96875 5.03125 -2.21875q2.125 -1.265625 2.125 -5.125l0 -44.859383q0 -3.859375 -1.171875 -6.65625q-1.15625 -2.8125 -4.4375 -3.390625q-0.765625 -0.203125 -1.546875 -0.96875q-0.765625 -0.78125 -0.765625 -2.71875q0 -2.890625 2.125 -3.46875q4.640625 -1.15625 10.4375 -2.796875q5.796875 -1.65625 11.296875 -3.578125q5.515625 -1.9375 9.1875 -3.875q0.78125 -0.390625 1.359375 -0.765625q0.578125 -0.390625 1.15625 -0.390625q1.9375 0 1.9375 2.3125q0 1.546875 -0.484375 5.125q-0.484375 3.578125 -0.484375 6.28125q0 1.9375 0.390625 2.328125l0.390625 0q6.171875 -6.1875 13.125 -9.671875q6.96875 -3.484375 15.28125 -3.484375q5.8125 0 10.921875 4.453125q5.125 4.453125 7.453125 10.828125l0.96875 0q5.59375 -7.34375 12.75 -11.3125q7.15625 -3.96875 16.046875 -3.96875q6.0 0 10.921875 3.296875q4.9375 3.28125 7.921875 9.46875q3.0 6.1875 3.0 15.078125l0 42.921883q0 3.859375 2.125 5.03125q2.140625 1.15625 5.03125 2.125q1.546875 0.578125 2.703125 1.546875q1.171875 0.96875 1.171875 2.515625q0 1.34375 -1.0625 2.125q-1.0625 0.765625 -2.234375 0.765625q-3.859375 0 -7.53125 -0.296875q-3.671875 -0.28125 -7.15625 -0.46875q-3.484375 -0.203125 -6.953125 -0.203125q-3.296875 0 -6.296875 0.203125q-2.984375 0.1875 -6.078125 0.46875q-3.09375 0.296875 -6.96875 0.296875q-1.15625 0 -2.125 -0.765625q-0.96875 -0.78125 -0.96875 -2.125q0 -1.546875 1.0625 -2.515625q1.0625 -0.96875 2.609375 -1.546875q2.515625 -0.78125 3.578125 -1.9375q1.0625 -1.15625 1.0625 -3.859375l0 -39.453133q0 -4.828125 -1.15625 -8.203125q-1.15625 -3.390625 -3.390625 -5.21875q-2.21875 -1.84375 -5.109375 -1.84375q-1.9375 0 -4.65625 1.0625q-2.703125 1.0625 -5.40625 3.390625q-2.125 1.921875 -2.125 6.765625l0 42.140633q0 3.859375 1.15625 5.03125q1.171875 1.15625 4.0625 2.125q1.546875 0.578125 2.703125 1.546875q1.171875 0.96875 1.171875 2.515625q0 1.34375 -1.0625 2.125q-1.0625 0.765625 -2.234375 0.765625q-3.859375 0 -7.046875 -0.296875q-3.1875 -0.28125 -6.1875 -0.46875q-3.0 -0.203125 -6.484375 -0.203125q-3.28125 0 -6.28125 0.203125q-3.0 0.1875 -6.09375 0.46875q-3.09375 0.296875 -6.953125 0.296875q-1.15625 0 -2.125 -0.765625q-0.96875 -0.78125 -0.96875 -2.125q0 -1.546875 1.0625 -2.515625q1.0625 -0.96875 2.609375 -1.546875q2.515625 -0.78125 3.578125 -1.9375q1.0625 -1.15625 1.0625 -3.859375l0 -39.453133q0 -4.828125 -1.15625 -8.109375q-1.15625 -3.296875 -3.296875 -5.125q-2.125 -1.84375 -5.015625 -1.84375q-1.9375 0 -4.640625 0.96875q-2.703125 0.96875 -5.796875 3.09375q-1.9375 1.359375 -1.9375 6.1875l0 42.921883q0 3.28125 0.859375 4.734375q0.875 1.453125 3.78125 2.421875q1.546875 0.578125 2.609375 1.546875q1.0625 0.96875 1.0625 2.515625q0 1.15625 -0.96875 2.03125q-0.96875 0.859375 -2.125 0.859375q-3.859375 0 -7.0625 -0.296875q-3.1875 -0.28125 -6.09375 -0.46875q-2.890625 -0.203125 -6.375 -0.203125q-3.28125 0 -6.765625 0.203125q-3.46875 0.1875 -7.15625 0.46875q-3.671875 0.296875 -7.53125 0.296875zm156.39453 -32.09375q-2.125 0.203125 -2.125 -2.125q0 -6.375 1.15625 -9.171875q1.171875 -2.8125 3.484375 -3.203125q10.640625 -1.7343826 22.625 -3.2812576q11.984375 -1.546875 22.625 -2.328125q2.125 -0.1875 2.703125 0.78125q0.578125 0.96875 0.578125 2.515625q0 6.1875076 -0.78125 8.312508q-0.765625 2.125 -3.09375 2.515625q-10.625 1.546875 -23.484375 3.28125q-12.859375 1.734375 -23.6875 2.703125zm62.25354 32.09375q-1.15625 0 -2.3125 -0.765625q-1.15625 -0.78125 -1.15625 -2.125q0 -3.296875 3.671875 -4.265625q7.3437805 -1.546875 10.0469055 -3.859375q2.703125 -2.328125 2.703125 -8.3125l0 -87.78126q0 -6.171875 -2.421875 -8.78125q-2.40625 -2.625 -9.1719055 -4.171875q-2.328125 -0.578125 -3.203125 -1.734375q-0.859375 -1.15625 -0.859375 -2.3125q0 -1.359375 1.0625 -2.21875q1.0625 -0.875 2.8125 -0.875q4.2500305 0 9.2656555 0.1875q5.03125 0.1875 9.859375 0.484375q4.84375 0.296875 8.703125 0.296875q8.125 0 17.6875 0q9.578125 0 18.28125 0q8.3125 0 15.171875 -1.0625q6.859375 -1.078125 11.109375 -1.078125q1.546875 0 3.1875 0.875q1.65625 0.875 1.84375 3.1875q0.390625 4.84375 0.578125 9.875q0.203125 5.015625 0.296875 9.5625q0.09375 4.546875 0.09375 8.015625q0 3.875 -2.515625 3.875q-0.96875 0 -2.328125 -0.765625q-1.34375 -0.78125 -1.734375 -2.53125q-1.34375 -5.015625 -3.0 -9.171875q-1.640625 -4.15625 -4.34375 -6.875q-2.515625 -2.5 -5.90625 -3.75q-3.375 -1.265625 -8.40625 -1.265625l-12.171875 0q-4.828125 0 -7.921875 2.328125q-3.09375 2.3125 -3.09375 6.5625q0 3.28125 0 7.828125q0 4.546875 0 7.828125q0 4.25 0 9.28125q0 5.03125 0 9.46875q0 2.515625 1.34375 3.578125q1.359375 1.0625 3.671875 1.0625q4.453125 0 9.0 0q4.546875 0 8.984375 0q5.03125 0 7.25 -3.09375q2.21875 -3.09375 3.96875 -7.34375q0.765625 -1.734375 1.828125 -2.609375q1.0625 -0.875 2.234375 -0.875q0.953125 0 1.71875 1.171875q0.78125 1.15625 0.59375 3.28125q-0.390625 4.25 -0.6875 8.03125q-0.28125 3.765625 -0.28125 6.65625q0 3.875 0.1875 6.390625q0.203125 2.5 0.59375 6.953125q0.375 2.90625 -0.296875 4.1562576q-0.671875 1.25 -1.640625 1.25q-1.359375 0 -2.71875 -1.34375q-1.34375 -1.3593826 -1.921875 -3.2812576q-1.734375 -6.0 -3.96875 -8.125q-2.21875 -2.125 -5.890625 -2.125q-2.125 0 -4.453125 0q-2.3125 0 -4.4375 0q-2.703125 0 -5.609375 0q-2.90625 0 -5.609375 0q-2.125 0 -3.1875 1.15625q-1.0625 1.15625 -1.0625 3.28125q0 8.703133 0.1875 18.187508q0.203125 9.46875 0.203125 18.15625q0 6.0 3.375 8.328125q3.390625 2.3125 11.703125 4.046875q1.734375 0.390625 2.703125 1.265625q0.96875 0.859375 0.96875 2.796875q0 1.359375 -0.78125 2.140625q-0.765625 0.765625 -2.3125 0.765625q-4.0625 0 -10.25 -0.203125q-6.1875 -0.1875 -12.28125 -0.375q-6.078125 -0.203125 -9.953125 -0.203125q-3.859375 0 -8.984375 0.203125q-5.125 0.1875 -10.4375 0.46875q-5.3125305 0.296875 -9.5781555 0.296875zm122.377716 2.125q-5.609375 0 -10.25 -2.421875q-4.625 -2.40625 -7.34375 -6.5625q-2.703125 -4.15625 -2.703125 -9.1875q0 -6.765625 4.34375 -11.40625q4.359375 -4.640625 12.671875 -8.3125l16.625 -7.34375q3.859375 -1.734375 4.828125 -3.1875q0.96875 -1.4531326 0.96875 -5.1250076l0.203125 -10.640625q0.1875 -5.59375 -1.75 -8.59375q-1.9375 -3.0 -5.984375 -3.0q-2.328125 0 -4.84375 1.0625q-2.515625 1.0625 -3.671875 2.421875q-0.578125 0.765625 -0.78125 1.734375q-0.1875 0.96875 -0.1875 1.9375q0 1.15625 0.1875 3.0q0.203125 1.828125 0.203125 2.984375q0 1.359375 -3.296875 3.203125q-3.28125 1.828125 -7.53125 3.28125q-4.25 1.453125 -7.34375 1.453125q-1.546875 0 -2.609375 -1.25q-1.0625 -1.265625 -1.0625 -3.203125q0 -3.09375 2.125 -5.984375q2.125 -2.90625 7.15625 -6.96875q5.21875 -4.25 11.40625 -7.53125q6.1875 -3.296875 12.171875 -5.328125q6.0 -2.03125 10.25 -2.03125q11.015625 0 17.59375 7.0625q6.578125 7.0625 6.1875 18.84375l-0.96875 37.515633q-0.1875 4.4375 1.453125 7.640625q1.640625 3.1875 4.15625 3.1875q3.484375 0 6.1875 -2.515625q0.578125 -0.578125 1.15625 -0.578125q0.96875 0 1.640625 0.671875q0.6875 0.671875 0.6875 1.640625q0 2.328125 -3.875 6.1875q-3.671875 3.671875 -7.921875 5.5q-4.25 1.84375 -8.890625 1.84375q-11.21875 0 -18.75 -11.203125l-0.390625 0q-6.390625 5.984375 -11.421875 8.59375q-5.015625 2.609375 -10.625 2.609375zm11.984375 -13.34375q1.75 0 2.90625 -0.578125q1.15625 -0.578125 2.125 -1.921875q0.578125 -0.78125 0.859375 -1.9375q0.296875 -1.15625 0.296875 -2.515625l0.578125 -14.890625q0 -1.734375 -0.578125 -2.21875q-0.578125 -0.484375 -1.34375 -0.484375q-0.390625 0 -0.875 0.09375q-0.484375 0.09375 -1.0625 0.484375q-4.640625 2.515625 -7.0625 5.125q-2.40625 2.609375 -2.40625 9.375q0 5.609375 2.21875 7.546875q2.21875 1.921875 4.34375 1.921875zm56.6521 11.21875q-1.359375 0 -2.625 -0.765625q-1.25 -0.78125 -1.25 -2.125q0 -1.546875 1.25 -2.515625q1.265625 -0.96875 3.203125 -1.546875q4.453125 -1.359375 5.796875 -2.8125q1.359375 -1.453125 1.359375 -4.53125l0 -45.046883q0 -3.875 -0.96875 -6.1875q-0.96875 -2.328125 -4.25 -3.296875q-0.96875 -0.375 -1.84375 -1.046875q-0.859375 -0.6875 -0.859375 -2.625q0 -2.890625 2.5 -3.46875q6.390625 -1.546875 14.21875 -3.96875q7.828125 -2.421875 13.625 -5.125q0.96875 -0.578125 2.515625 -1.34375q1.546875 -0.78125 2.3125 -0.78125q1.9375 0 1.9375 2.3125q0 0.96875 -0.09375 4.0625q-0.09375 3.09375 -0.296875 6.28125q-0.1875 3.1875 -0.1875 5.125q0 1.9375 0.78125 1.9375q2.890625 -4.0625 6.84375 -8.125q3.96875 -4.0625 8.703125 -6.765625q4.75 -2.703125 9.578125 -2.703125q7.15625 0 10.046875 2.703125q2.90625 2.703125 2.90625 6.96875q0 3.09375 -1.75 6.859375q-1.734375 3.765625 -4.4375 6.484375q-2.703125 2.703125 -5.796875 2.703125q-1.9375 0 -3.96875 -0.96875q-2.03125 -0.96875 -4.15625 -1.9375q-1.9375 -0.96875 -3.875 -1.828125q-1.921875 -0.875 -3.46875 -0.875q-5.03125 0 -8.515625 3.765625q-3.46875 3.765625 -3.46875 14.984383l0 29.765625q0 4.265625 2.3125 6.203125q2.328125 1.921875 7.734375 3.46875q2.125 0.578125 3.1875 1.453125q1.078125 0.875 1.078125 2.421875q0 2.890625 -3.09375 2.890625q-5.8125 0 -12.765625 -0.484375q-6.953125 -0.484375 -11.984375 -0.484375q-3.296875 0 -6.96875 0.203125q-3.671875 0.1875 -7.546875 0.46875q-3.859375 0.296875 -7.71875 0.296875zm101.29895 2.125q-5.609375 0 -10.25 -2.421875q-4.625 -2.40625 -7.34375 -6.5625q-2.703125 -4.15625 -2.703125 -9.1875q0 -6.765625 4.34375 -11.40625q4.359375 -4.640625 12.671875 -8.3125l16.625 -7.34375q3.859375 -1.734375 4.828125 -3.1875q0.96875 -1.4531326 0.96875 -5.1250076l0.203125 -10.640625q0.1875 -5.59375 -1.75 -8.59375q-1.9375 -3.0 -5.984375 -3.0q-2.328125 0 -4.84375 1.0625q-2.515625 1.0625 -3.671875 2.421875q-0.578125 0.765625 -0.78125 1.734375q-0.1875 0.96875 -0.1875 1.9375q0 1.15625 0.1875 3.0q0.203125 1.828125 0.203125 2.984375q0 1.359375 -3.296875 3.203125q-3.28125 1.828125 -7.53125 3.28125q-4.25 1.453125 -7.34375 1.453125q-1.546875 0 -2.609375 -1.25q-1.0625 -1.265625 -1.0625 -3.203125q0 -3.09375 2.125 -5.984375q2.125 -2.90625 7.15625 -6.96875q5.21875 -4.25 11.40625 -7.53125q6.1875 -3.296875 12.171875 -5.328125q6.0 -2.03125 10.25 -2.03125q11.015625 0 17.59375 7.0625q6.578125 7.0625 6.1875 18.84375l-0.96875 37.515633q-0.1875 4.4375 1.453125 7.640625q1.640625 3.1875 4.15625 3.1875q3.484375 0 6.1875 -2.515625q0.578125 -0.578125 1.15625 -0.578125q0.96875 0 1.640625 0.671875q0.6875 0.671875 0.6875 1.640625q0 2.328125 -3.875 6.1875q-3.671875 3.671875 -7.921875 5.5q-4.25 1.84375 -8.890625 1.84375q-11.21875 0 -18.75 -11.203125l-0.390625 0q-6.390625 5.984375 -11.421875 8.59375q-5.015625 2.609375 -10.625 2.609375zm11.984375 -13.34375q1.75 0 2.90625 -0.578125q1.15625 -0.578125 2.125 -1.921875q0.578125 -0.78125 0.859375 -1.9375q0.296875 -1.15625 0.296875 -2.515625l0.578125 -14.890625q0 -1.734375 -0.578125 -2.21875q-0.578125 -0.484375 -1.34375 -0.484375q-0.390625 0 -0.875 0.09375q-0.484375 0.09375 -1.0625 0.484375q-4.640625 2.515625 -7.0625 5.125q-2.40625 2.609375 -2.40625 9.375q0 5.609375 2.21875 7.546875q2.21875 1.921875 4.34375 1.921875zm49.886475 66.125q-4.25 0 -6.46875 -0.875q-2.234375 -0.859375 -2.234375 -2.40625q0 -1.546875 0.96875 -2.421875q0.96875 -0.875 3.09375 -1.828125q3.09375 -1.546875 5.609375 -3.578125q2.515625 -2.03125 5.015625 -7.0625q1.9375 -4.0625 3.09375 -10.0625q1.171875 -5.984375 1.84375 -12.75q0.671875 -6.765625 0.859375 -13.046875q0.203125 -6.28125 0.203125 -10.734375l0 -45.625008q0 -6.953125 -2.03125 -9.375q-2.03125 -2.421875 -6.28125 -3.0q-1.15625 -0.1875 -1.75 -1.25q-0.578125 -1.0625 -0.578125 -2.421875q0 -3.09375 2.328125 -3.484375q10.4375 -2.125 18.9375 -5.703125q8.515625 -3.578125 12.953125 -5.5q1.546875 -0.78125 2.703125 -1.15625q1.171875 -0.390625 1.5625 -0.390625q2.703125 0 2.703125 2.703125q-0.390625 5.40625 -1.453125 13.53125q-1.0625 8.125 -1.0625 15.28125l0.1875 38.078133q0 6.0 -0.484375 14.03125q-0.46875 8.015625 -2.015625 16.609375q-1.546875 8.609375 -5.21875 16.34375q-2.90625 6.5625 -8.421875 12.5625q-5.5 6.0 -11.890625 9.765625q-6.375 3.765625 -12.171875 3.765625zm25.328125 -149.82812q-6.578125 0 -11.40625 -4.828125q-4.828125 -4.84375 -4.828125 -11.40625q0 -7.15625 4.828125 -11.984375q4.828125 -4.84375 11.40625 -4.84375q7.15625 0 11.984375 4.84375q4.84375 4.828125 4.84375 11.984375q0 6.5625 -4.84375 11.40625q-4.828125 4.828125 -11.984375 4.828125z" fill-rule="nonzero"/><path fill="#000000" fill-opacity="0.0" d="m-42.40315 253.74803l1010.48816 0l0 654.2677l-1010.48816 0z" fill-rule="evenodd"/><path fill="#efefef" d="m25.705828 384.8674q-0.3125 -8.546875 4.4375 -16.625q4.765627 -8.078125 12.437502 -13.578125q7.671875 -5.5 16.34375 -5.828125l104.859375 -3.03125q5.75 30.78125 5.46875 54.53125q-12.921875 11.0 -25.84375 16.640625q-12.90625 5.625 -23.59375 8.21875l-10.71875 335.50003l0 -8.609375q15.75 0 28.234375 5.28125q12.484375 5.265625 20.484375 15.53125q0 17.578125 -2.03125 27.09375q-2.015625 9.515625 -9.140625 27.828125l-59.875 0q-20.78125 0 -31.531246 -10.0625q-10.75 -10.0625 -13.40625 -23.0625q-2.65625 -12.984375 -3.328125 -31.96875l-12.796877 -377.8594zm155.66797 256.78128q0 -10.90625 2.421875 -20.484375q2.421875 -9.59375 9.5625 -24.1875l175.53127 -10.484375q6.15625 17.125 6.15625 31.3125q0 23.703125 -13.546875 57.390625q-32.84375 1.078125 -65.953125 1.078125q-53.375015 0 -109.92189 -3.25q-4.25 -20.203125 -4.25 -31.375z" fill-rule="nonzero"/><path fill="#efefef" d="m418.28006 289.63303q15.375 -10.421875 35.34375 -14.578125q19.984406 -4.171875 39.484406 -4.171875q15.984375 0 35.921875 5.359375l-2.609375 559.1719q-29.875 9.234375 -49.640625 9.234375q-18.640656 0 -43.328156 -8.359375l-15.171875 -546.65625z" fill-rule="nonzero"/><path fill="#efefef" d="m565.68304 641.6487q0 -10.90625 2.421875 -20.484375q2.421875 -9.59375 9.5625 -24.1875l175.53125 -10.484375q6.15625 17.125 6.15625 31.3125q0 23.703125 -13.546875 57.390625q-32.84375 1.078125 -65.953125 1.078125q-53.375 0 -109.921875 -3.25q-4.25 -20.203125 -4.25 -31.375zm340.0 121.078125q-0.671875 18.984375 -3.328125 31.96875q-2.65625 13.0 -13.40625 23.0625q-10.75 10.0625 -31.53125 10.0625l-59.875 0q-7.125 -18.3125 -9.15625 -27.828125q-2.015625 -9.515625 -2.015625 -27.09375q8.0 -10.265625 20.484375 -15.53125q12.484375 -5.28125 28.234375 -5.28125l0 8.609375l-10.734375 -335.50003q-10.671875 -2.59375 -23.59375 -8.21875q-12.90625 -5.640625 -25.828125 -16.640625q-0.28125 -23.75 5.46875 -54.53125l104.859375 3.03125q8.65625 0.328125 16.328125 5.828125q7.671875 5.5 12.4375 13.578125q4.765625 8.078125 4.453125 16.625l-12.796875 377.8594z" fill-rule="nonzero"/></g></svg>